<?xml version="1.0" encoding="UTF-8" standalone="no"?>
<!-- Created with Inkscape (http://www.inkscape.org/) -->

<svg
   width="210mm"
   height="297mm"
   viewBox="0 0 210 297"
   version="1.1"
   id="svg9734"
   sodipodi:docname="akanga.svg"
   inkscape:version="1.1 (ce6663b3b7, 2021-05-25)"
   xmlns:inkscape="http://www.inkscape.org/namespaces/inkscape"
   xmlns:sodipodi="http://sodipodi.sourceforge.net/DTD/sodipodi-0.dtd"
   xmlns:xlink="http://www.w3.org/1999/xlink"
   xmlns="http://www.w3.org/2000/svg"
   xmlns:svg="http://www.w3.org/2000/svg">
  <sodipodi:namedview
     id="namedview9736"
     pagecolor="#505050"
     bordercolor="#ffffff"
     borderopacity="1"
     inkscape:pageshadow="0"
     inkscape:pageopacity="0"
     inkscape:pagecheckerboard="1"
     inkscape:document-units="mm"
     showgrid="false"
     inkscape:zoom="0.5"
     inkscape:cx="502"
     inkscape:cy="596"
     inkscape:window-width="1364"
     inkscape:window-height="730"
     inkscape:window-x="0"
     inkscape:window-y="18"
     inkscape:window-maximized="1"
     inkscape:current-layer="layer1" />
  <defs
     id="defs9731">
    <linearGradient
       inkscape:collect="always"
       xlink:href="#linearGradient14746"
       id="linearGradient14748"
       x1="3712.1514"
       y1="10834.959"
       x2="4097.1289"
       y2="10764.291"
       gradientUnits="userSpaceOnUse"
       gradientTransform="matrix(0.26458333,0,0,0.26458333,1.9825147e-6,-1.6379523e-4)" />
    <linearGradient
       inkscape:collect="always"
       id="linearGradient14746">
      <stop
         style="stop-color:#059ad0;stop-opacity:1;"
         offset="0"
         id="stop14742" />
      <stop
         style="stop-color:#047096;stop-opacity:1"
         offset="1"
         id="stop14744" />
    </linearGradient>
    <linearGradient
       inkscape:collect="always"
       xlink:href="#linearGradient20635"
       id="linearGradient19371"
       x1="867.67877"
       y1="2873.4441"
       x2="953.64978"
       y2="2910.2361"
       gradientUnits="userSpaceOnUse"
       gradientTransform="translate(-1.9934735e-5,-1.0039176e-4)" />
    <linearGradient
       inkscape:collect="always"
       id="linearGradient20635">
      <stop
         style="stop-color:#cccccc;stop-opacity:1"
         offset="0"
         id="stop20631" />
      <stop
         style="stop-color:#8c8c8c;stop-opacity:1"
         offset="1"
         id="stop20633" />
    </linearGradient>
    <linearGradient
       inkscape:collect="always"
       xlink:href="#linearGradient15948"
       id="linearGradient15950"
       x1="3715.8494"
       y1="10423.425"
       x2="3966.6487"
       y2="10535.734"
       gradientUnits="userSpaceOnUse"
       gradientTransform="matrix(0.26458333,0,0,0.26458333,1.9825147e-6,-1.6379523e-4)" />
    <linearGradient
       inkscape:collect="always"
       id="linearGradient15948">
      <stop
         style="stop-color:#e8e8e8;stop-opacity:1"
         offset="0"
         id="stop15944" />
      <stop
         style="stop-color:#c2c2c2;stop-opacity:1"
         offset="1"
         id="stop15946" />
    </linearGradient>
    <linearGradient
       inkscape:collect="always"
       xlink:href="#linearGradient17202"
       id="linearGradient17204"
       x1="3313.9368"
       y1="10750.606"
       x2="3601.7883"
       y2="10937.537"
       gradientUnits="userSpaceOnUse"
       gradientTransform="matrix(0.26458333,0,0,0.26458333,1.9825147e-6,-1.6379523e-4)" />
    <linearGradient
       inkscape:collect="always"
       id="linearGradient17202">
      <stop
         style="stop-color:#e0e0e0;stop-opacity:1"
         offset="0"
         id="stop17198" />
      <stop
         style="stop-color:#ababab;stop-opacity:1"
         offset="1"
         id="stop17200" />
    </linearGradient>
    <radialGradient
       inkscape:collect="always"
       xlink:href="#linearGradient24789"
       id="radialGradient24791"
       cx="943.61816"
       cy="2809.1467"
       fx="943.61816"
       fy="2809.1467"
       r="75.205193"
       gradientTransform="matrix(1.4644379,1.0435944,-0.30666957,0.4303382,439.81623,620.8094)"
       gradientUnits="userSpaceOnUse" />
    <linearGradient
       inkscape:collect="always"
       id="linearGradient24789">
      <stop
         style="stop-color:#e50000;stop-opacity:1;"
         offset="0"
         id="stop24785" />
      <stop
         style="stop-color:#d60000;stop-opacity:1"
         offset="1"
         id="stop24787" />
    </linearGradient>
  </defs>
  <g
     inkscape:label="Layer 1"
     inkscape:groupmode="layer"
     id="layer1">
    <path
       id="path25184"
       style="display:inline;fill:#0abbf7;fill-opacity:1;stroke:none;stroke-width:1.43474;stroke-miterlimit:2;stroke-dasharray:none;stop-color:#000000"
       d="m 95.606111,183.48962 a 57.58252,57.072835 0 0 1 -1.18278,5.89316 57.58252,57.072835 0 0 1 -0.02223,0.065 57.58252,57.072835 0 0 1 -0.02301,0.11537 57.58252,57.072835 0 0 1 -0.309456,1.00194 57.58252,57.072835 0 0 1 -0.82275,2.4022 57.58252,57.072835 0 0 1 -0.361227,0.95622 92.483059,91.53434 0 0 0 0.0202,0.0391 57.58252,57.072835 0 0 1 -0.0031,0.008 92.483051,91.534332 0 0 1 -0.0202,-0.0391 92.483051,91.534332 0 0 1 -0.0097,-0.0188 57.58252,57.072835 0 0 1 -0.869676,2.53927 57.58252,57.072835 0 0 1 -3.331492,6.69572 57.58252,57.072835 0 0 1 -4.184551,6.20713 57.58252,57.072835 0 0 1 -4.96648,5.613 57.58252,57.072835 0 0 1 -5.662627,4.92223 57.58252,57.072835 0 0 1 -6.262893,4.14791 57.58252,57.072835 0 0 1 -4.037737,1.9735 57.58252,57.072835 0 0 0 0.09748,0.10997 57.58252,57.072835 0 0 0 3.894938,-1.9039 57.58252,57.072835 0 0 0 2.582353,-1.59182 57.58252,57.072835 0 0 1 -0.607562,0.40304 57.58252,57.072835 0 0 1 -0.72406,0.4461 57.58252,57.072835 0 0 1 -1.250731,0.74268 57.58252,57.072835 0 0 1 -1.03188,0.52875 57.58252,57.072835 0 0 1 -1.808126,0.88374 57.58252,57.072835 0 0 1 -1.054932,0.49141 57.58252,57.072835 0 0 0 0.01495,0.0172 57.58252,57.072835 0 0 0 0.498359,0.56312 57.58252,57.072835 0 0 0 6.459084,-1.27331 57.58252,57.072835 0 0 0 7.132569,-2.39986 57.58252,57.072835 0 0 0 6.755601,-3.30168 57.58252,57.072835 0 0 0 6.262502,-4.14768 57.58252,57.072835 0 0 0 5.66301,-4.92207 57.58252,57.072835 0 0 0 4.392493,-4.96473 57.58252,57.072835 0 0 0 0.002,-0.008 92.483051,91.534332 0 0 0 0.002,0 57.58252,57.072835 0 0 0 0.57035,-0.64429 57.58252,57.072835 0 0 0 4.18458,-6.20759 57.58252,57.072835 0 0 0 1.91571,-3.85008 92.483051,91.534332 0 0 0 -1.59172,-1.94555 92.483051,91.534332 0 0 0 -6.845378,-6.77501 92.483051,91.534332 0 0 0 -3.443537,-2.75985 92.483059,91.53434 0 0 0 -0.0202,-0.0164 z m -6.980496,19.83801 a 57.58252,57.072835 0 0 1 -0.964734,1.59573 57.58252,57.072835 0 0 1 -0.0039,0.008 57.58252,57.072835 0 0 1 -0.0039,0.008 57.58252,57.072835 0 0 1 -1.01732,1.56388 57.58252,57.072835 0 0 1 -1.055339,1.51166 57.58252,57.072835 0 0 1 -0.03436,0.047 57.58252,57.072835 0 0 1 -1.105107,1.47691 57.58252,57.072835 0 0 1 -1.131392,1.41264 57.58252,57.072835 0 0 1 -0.08212,0.0994 57.58252,57.072835 0 0 1 -0.608376,0.68797 57.58252,57.072835 0 0 0 1.821887,-2.20002 57.58252,57.072835 0 0 0 2.194832,-3.03578 57.58252,57.072835 0 0 0 1.989742,-3.17158 z m -7.172232,9.72625 a 57.58252,57.072835 0 0 1 -0.578028,0.6536 57.58252,57.072835 0 0 1 -0.182422,0.19279 57.58252,57.072835 0 0 1 -1.218372,1.24725 57.58252,57.072835 0 0 1 -1.220783,1.1714 57.58252,57.072835 0 0 1 -0.271414,0.25158 57.58252,57.072835 0 0 1 -1.257596,1.13022 57.58252,57.072835 0 0 0 2.749793,-2.5532 57.58252,57.072835 0 0 0 1.978822,-2.09364 z m -4.729014,4.64684 a 57.58252,57.072835 0 0 1 -1.238199,1.04146 57.58252,57.072835 0 0 1 -0.399646,0.3254 57.58252,57.072835 0 0 1 -1.27459,1.0024 57.58252,57.072835 0 0 1 -1.244242,0.91473 57.58252,57.072835 0 0 1 -0.547274,0.3888 57.58252,57.072835 0 0 1 -0.661783,0.43905 57.58252,57.072835 0 0 0 2.453299,-1.74258 57.58252,57.072835 0 0 0 2.912435,-2.36926 z" />
    <path
       style="display:inline;fill:#800000;stroke:none;stroke-width:0.0508793;stroke-linecap:butt;stroke-linejoin:miter;stroke-miterlimit:4;stroke-dasharray:none;stroke-opacity:1"
       d="m 56.796509,122.89273 c 0,0 -0.256667,-0.0712 -0.260972,0.19013 -0.0047,0.26113 -0.01119,0.42167 -0.01119,0.42167 l -0.01699,0.43428 1.559248,-0.53416 -1.078391,-0.52562 z"
       id="path45141" />
    <path
       id="path25370"
       style="display:inline;fill:#ff0000;stroke:none;stroke-width:1.43474;stroke-miterlimit:2;stroke-dasharray:none;stop-color:#000000"
       d="m 60.286244,121.89604 a 57.58252,57.072835 0 0 0 -6.582877,-2.2152 57.58252,57.072835 0 0 0 -0.0063,0 57.58252,57.072835 0 0 1 6.587722,2.21685 57.58252,57.072835 0 0 1 0.0016,-3.9e-4 z" />
    <path
       id="path25334"
       style="display:inline;fill:#ff0000;stroke:none;stroke-width:1.43474;stroke-miterlimit:2;stroke-dasharray:none;stop-color:#000000"
       d="m 95.901414,182.08465 a 57.58252,57.072835 0 0 1 -0.283562,1.41374 92.483059,91.53434 0 0 1 0.0202,0.0164 57.58252,57.072835 0 0 0 0.252002,-1.25585 57.58252,57.072835 0 0 0 0.01135,-0.17401 z" />
    <path
       id="path25332"
       style="display:inline;fill:url(#linearGradient14748);fill-opacity:1;stroke:none;stroke-width:1.43474;stroke-miterlimit:2;stroke-dasharray:none;stop-color:#000000"
       d="m 114.91607,78.820788 a 92.482965,91.534246 0 0 0 -3.17856,2.547598 92.482965,91.534246 0 0 0 -6.84498,6.775024 92.482965,91.534246 0 0 0 -6.092199,7.44563 92.482965,91.534246 0 0 0 -5.272297,8.03547 92.482965,91.534246 0 0 0 -4.394909,8.53728 92.482965,91.534246 0 0 0 -3.469007,8.94445 92.482965,91.534246 0 0 0 -0.121759,0.44941 57.58252,57.072835 0 0 1 0.654082,0.43306 57.58252,57.072835 0 0 1 4.592321,3.04113 57.58252,57.072835 0 0 1 5.663018,4.92205 57.58252,57.072835 0 0 1 1.659676,1.87596 57.58252,57.072835 0 0 0 -6.459084,1.27349 57.58252,57.072835 0 0 0 -7.132593,2.39993 57.58252,57.072835 0 0 0 -2.369157,1.15793 92.482965,91.534246 0 0 0 -0.07646,0.47737 57.58252,57.072835 0 0 1 2.423786,2.73938 57.58252,57.072835 0 0 1 4.184558,6.20777 57.58252,57.072835 0 0 1 1.697703,3.41205 57.58252,57.072835 0 0 1 -0.143605,-0.0704 57.58252,57.072835 0 0 1 0.03319,0.0663 57.58252,57.072835 0 0 0 -0.03358,-0.0663 57.58252,57.072835 0 0 1 -0.03397,-0.0166 57.58252,57.072835 0 0 1 0.313909,0.63063 57.58252,57.072835 0 0 1 0.0089,0.0166 57.58252,57.072835 0 0 1 1.395119,2.80358 v 0 a 57.58252,57.072835 0 0 1 0.02552,0 57.58252,57.072835 0 0 1 0,0.002 57.58252,57.072835 0 0 1 0.05135,0.10314 57.58252,57.072835 0 0 1 0.05745,0.14311 57.58252,57.072835 0 0 0 -0.05745,-0.14207 57.58252,57.072835 0 0 0 -0.05213,-0.10418 57.58252,57.072835 0 0 0 -0.0263,0 57.58252,57.072835 0 0 1 0.04814,0.0965 57.58252,57.072835 0 0 1 0.823572,2.09134 57.58252,57.072835 0 0 1 0.96432,2.8158 57.58252,57.072835 0 0 1 0.633064,2.16238 57.58252,57.072835 0 0 1 0.391552,1.5448 57.58252,57.072835 0 0 1 0.84217,4.19471 57.58252,57.072835 0 0 1 0.23583,1.58248 57.58252,57.072835 0 0 1 0.10759,1.62681 57.58252,57.072835 0 0 1 0.163424,1.60134 57.58252,57.072835 0 0 1 0.173538,2.62568 57.58252,57.072835 0 0 1 0.04814,1.59263 57.58252,57.072835 0 0 1 -0.007,0.6062 57.58252,57.072835 0 0 1 -0.4126,6.24235 57.58252,57.072835 0 0 1 -0.07319,0.60061 57.58252,57.072835 0 0 1 -0.249583,1.24263 92.483059,91.53434 0 0 1 0.0081,0.008 57.58252,57.072835 0 0 0 0.283547,-1.4137 57.58252,57.072835 0 0 0 0,-0.002 57.58252,57.072835 0 0 0 0.0047,-0.0371 57.58252,57.072835 0 0 1 -0.0023,0.0225 57.58252,57.072835 0 0 1 -0.0031,0.0145 57.58252,57.072835 0 0 1 -0.01135,0.17438 57.58252,57.072835 0 0 1 -0.252009,1.25567 92.482997,91.534277 0 0 1 3.443513,2.75988 92.482997,91.534277 0 0 1 6.8454,6.77503 92.482997,91.534277 0 0 1 1.59171,1.94554 92.482997,91.534277 0 0 1 4.50008,5.50009 92.482997,91.534277 0 0 1 5.27226,8.03546 92.482997,91.534277 0 0 1 1.67627,3.25569 92.482997,91.534277 0 0 1 2.71865,5.28159 92.482997,91.534277 0 0 1 3.46901,8.94404 92.482997,91.534277 0 0 1 0.40046,1.47894 92.482997,91.534277 0 0 0 1.82389,1.17221 92.482997,91.534277 0 0 0 8.62519,4.34962 92.482997,91.534277 0 0 0 3.70039,1.40562 92.483044,91.534324 0 0 0 0.33735,0.12819 92.483004,91.534285 0 0 0 0.15575,0.0619 92.483004,91.534285 0 0 1 -0.15776,-0.0603 92.483044,91.534324 0 0 1 -0.33573,-0.12779 92.483004,91.534285 0 0 1 -3.70646,-1.4081 92.483004,91.534285 0 0 1 -8.62559,-4.34962 92.483004,91.534285 0 0 1 -1.8154,-1.16703 92.483004,91.534285 0 0 1 2.10382,7.77098 92.483004,91.534285 0 0 1 0.91173,5.6985 57.58252,57.072835 0 0 0 0.0199,-0.008 57.58252,57.072835 0 0 0 0.0161,-0.006 57.58252,57.072835 0 0 1 -0.0166,0.008 57.58252,57.072835 0 0 1 -0.0195,0.008 92.482997,91.534277 0 0 1 0.60272,3.76475 92.482997,91.534277 0 0 1 0.22611,4.2703 92.482997,91.534277 0 0 0 0.30621,-0.14518 92.483004,91.534285 0 0 0 0.82032,-0.38832 92.483004,91.534285 0 0 0 2.92536,-1.51415 92.483004,91.534285 0 0 0 2.86913,-1.61707 92.483004,91.534285 0 0 0 2.80886,-1.71711 92.483004,91.534285 0 0 0 2.74495,-1.81548 92.483004,91.534285 0 0 0 2.10462,-1.50234 92.483004,91.534285 0 0 0 -0.0254,-0.4838 92.483004,91.534285 0 0 1 0.0259,0.48339 92.483004,91.534285 0 0 0 0.57277,-0.4082 92.483004,91.534285 0 0 0 2.60743,-2.00499 92.483004,91.534285 0 0 0 0.80415,-0.66501 92.483004,91.534285 0 0 1 -2.93023,-0.77706 92.483004,91.534285 0 0 1 -1.72437,-0.65528 92.483004,91.534285 0 0 1 -0.16909,-0.0644 92.483004,91.534285 0 0 0 0.16867,0.0615 92.482973,91.534254 0 0 0 1.73128,0.65818 92.482973,91.534254 0 0 0 2.92454,0.77581 v 0 a 92.482973,91.534254 0 0 0 1.72763,-1.42902 92.482973,91.534254 0 0 0 2.45614,-2.18351 92.482973,91.534254 0 0 0 2.37606,-2.26904 92.482973,91.534254 0 0 0 2.2923,-2.35167 92.482973,91.534254 0 0 0 2.20616,-2.43059 92.482973,91.534254 0 0 0 2.11715,-2.50721 92.482973,91.534254 0 0 0 2.02534,-2.58032 92.482973,91.534254 0 0 0 1.93109,-2.65074 92.482973,91.534254 0 0 0 1.83402,-2.7166 92.482973,91.534254 0 0 0 1.73492,-2.77976 92.482973,91.534254 0 0 0 1.63377,-2.84003 92.482973,91.534254 0 0 0 1.53023,-2.89533 92.482973,91.534254 0 0 0 1.42507,-2.94752 92.482973,91.534254 0 0 0 1.31746,-2.99619 92.482973,91.534254 0 0 0 1.20906,-3.04071 92.482973,91.534254 0 0 0 1.09822,-3.0811 92.482973,91.534254 0 0 0 0.98658,-3.11858 92.482973,91.534254 0 0 0 0.87332,-3.15111 92.482973,91.534254 0 0 0 0.75925,-3.17989 92.482973,91.534254 0 0 0 0.64396,-3.20515 92.482973,91.534254 0 0 0 0.52829,-3.22567 92.482973,91.534254 0 0 0 0.41137,-3.24201 92.482973,91.534254 0 0 0 0.29449,-3.25424 92.482973,91.534254 0 0 0 0.17635,-3.26274 92.482973,91.534254 0 0 0 0.0586,-3.26749 92.482973,91.534254 0 0 0 -0.50644,-9.56804 92.482973,91.534254 0 0 0 -1.51404,-9.46305 92.482973,91.534254 0 0 0 -1.10954,-4.09674 92.482973,91.534254 0 0 0 -1.39635,-5.15774 92.482973,91.534254 0 0 0 -3.4694,-8.94445 92.482973,91.534254 0 0 0 -1.87608,-3.64525 92.483012,91.534293 0 0 0 -1.91207,-3.71464 57.58252,57.072835 0 0 0 0.002,-0.004 h -0.004 a 57.58252,57.072835 0 0 1 -0.036,0.0727 57.58252,57.072835 0 0 1 -0.0356,0.0712 57.58252,57.072835 0 0 0 0.0679,-0.15057 92.483012,91.534301 0 0 0 -0.2613,-0.50719 57.58252,57.072835 0 0 1 -2.55362,5.13205 34.596161,34.289939 0 0 0 0.53677,-0.047 57.58252,57.072835 0 0 0 0.0854,-0.15574 57.58252,57.072835 0 0 1 -0.0323,0.0647 57.58252,57.072835 0 0 1 -0.0494,0.0907 34.596161,34.289939 0 0 0 0.005,0 34.596161,34.289939 0 0 1 -0.005,0 h -0.003 a 34.596161,34.289939 0 0 1 -0.53678,0.0468 34.596161,34.289939 0 0 1 -4.01023,0.34815 34.596161,34.289939 0 0 1 -0.0178,0 34.596161,34.289939 0 0 1 -0.0312,-0.002 34.596161,34.289939 0 0 0 0.0312,0 34.596161,34.289939 0 0 0 0.0182,0 34.596161,34.289939 0 0 0 4.01023,-0.34773 57.58252,57.072835 0 0 0 2.55321,-5.13041 92.483012,91.534293 0 0 0 -0.33938,-0.65921 92.483012,91.534293 0 0 0 -5.27227,-8.03505 92.483012,91.534293 0 0 0 -3.59522,-4.39456 92.48302,91.534308 0 0 0 -2.49698,-3.05148 92.48302,91.534308 0 0 0 -6.84498,-6.774615 92.48302,91.534308 0 0 0 -7.52334,-6.030068 92.48302,91.534308 0 0 0 -8.11835,-5.217595 92.48302,91.534308 0 0 0 -5.81392,-2.932192 92.482965,91.534246 0 0 0 -2.81167,-1.417426 92.482965,91.534246 0 0 0 -9.0374,-3.433801 92.482965,91.534246 0 0 0 -2.79308,-0.740607 z m 14.01196,19.831542 a 34.596161,34.289939 0 0 0 0.002,0.0083 34.596161,34.289939 0 0 1 -0.002,-0.0062 34.596161,34.289939 0 0 1 0,-0.002 z m 1.55854,5.7658 a 34.596161,34.289939 0 0 0 0.002,0.008 34.596161,34.289939 0 0 0 0.005,0.0124 34.596161,34.289939 0 0 1 -0.005,-0.0104 34.596161,34.289939 0 0 1 -0.002,-0.0104 z m 2.54473,5.41331 a 34.596161,34.289939 0 0 0 0.006,0.0124 34.596161,34.289939 0 0 0 0.009,0.0145 34.596161,34.289939 0 0 1 -0.009,-0.0124 34.596161,34.289939 0 0 1 -0.006,-0.0124 z m 3.45403,4.89369 a 34.596161,34.289939 0 0 0 0.0113,0.0145 34.596161,34.289939 0 0 0 0.0145,0.0166 34.596161,34.289939 0 0 1 -0.0145,-0.0145 34.596161,34.289939 0 0 1 -0.0113,-0.0166 z m 4.25899,4.22577 a 34.596161,34.289939 0 0 0 0.0166,0.0145 34.596161,34.289939 0 0 0 0.0199,0.0166 34.596161,34.289939 0 0 1 -0.0199,-0.0145 34.596161,34.289939 0 0 1 -0.0166,-0.0166 z m 4.93898,3.43276 a 34.596161,34.289939 0 0 0 0.0174,0.0103 34.596161,34.289939 0 0 0 0.0199,0.0103 34.596161,34.289939 0 0 1 -0.0199,-0.0103 34.596161,34.289939 0 0 1 -0.0174,-0.0125 z m 5.45674,2.52606 a 34.596161,34.289939 0 0 0 0.0263,0.0103 34.596161,34.289939 0 0 0 0.0287,0.0103 34.596161,34.289939 0 0 1 -0.0287,-0.008 34.596161,34.289939 0 0 1 -0.0263,-0.0125 z m 5.82724,1.55245 a 34.596161,34.289939 0 0 0 0.0239,0.004 34.596161,34.289939 0 0 0 0.0246,0.004 34.596161,34.289939 0 0 1 -0.0246,-0.002 34.596161,34.289939 0 0 1 -0.0239,-0.006 z m 7.95412,4.39623 a 34.596161,34.289939 0 0 0 0.005,0.004 34.596161,34.289939 0 0 0 0.003,0.004 34.596161,34.289939 0 0 1 -0.003,-0.004 57.58252,57.072835 0 0 1 -0.0579,0.0862 57.58252,57.072835 0 0 0 0.0554,-0.087 h 0.002 a 34.596161,34.289939 0 0 1 -0.005,-0.006 z m -0.0748,0.1108 a 57.58252,57.072835 0 0 1 -0.16463,0.25722 57.58252,57.072835 0 0 1 -1.77172,2.62837 57.58252,57.072835 0 0 1 -0.18487,0.26012 57.58252,57.072835 0 0 0 2.12122,-3.14571 z m -58.32148,0.18971 a 57.58252,57.072835 0 0 1 0.003,0 57.58252,57.072835 0 0 1 1.53185,1.01439 57.58252,57.072835 0 0 1 5.66302,4.92247 57.58252,57.072835 0 0 1 4.96609,5.61275 57.58252,57.072835 0 0 1 4.18496,6.20756 57.58252,57.072835 0 0 1 1.47602,2.7547 57.58252,57.072835 0 0 0 -1.47602,-2.75262 57.58252,57.072835 0 0 0 -4.18496,-6.20715 57.58252,57.072835 0 0 0 -4.96609,-5.61316 57.58252,57.072835 0 0 0 -5.66302,-4.92248 57.58252,57.072835 0 0 0 -1.53509,-1.01646 z m 56.19016,2.98479 a 57.58252,57.072835 0 0 1 -0.0575,0.0853 57.58252,57.072835 0 0 1 -0.0303,0.0344 57.58252,57.072835 0 0 0 0.0279,-0.0352 57.58252,57.072835 0 0 0 0.0599,-0.0845 z m -0.093,0.11204 a 57.58252,57.072835 0 0 1 -0.10517,0.13276 57.58252,57.072835 0 0 1 -4.67362,5.28221 57.58252,57.072835 0 0 1 -0.11933,0.12095 57.58252,57.072835 0 0 0 4.89812,-5.53592 z m 5.4009,0.99431 a 34.596161,34.289939 0 0 0 0.003,0.004 34.596161,34.289939 0 0 1 -0.003,-0.004 z m -10.29863,4.55507 a 57.58252,57.072835 0 0 1 -0.0328,0.0369 57.58252,57.072835 0 0 1 -0.0368,0.0319 57.58252,57.072835 0 0 0 0.034,-0.0327 57.58252,57.072835 0 0 0 0.0355,-0.036 z m -0.07,0.0557 a 57.58252,57.072835 0 0 1 -0.13793,0.13359 57.58252,57.072835 0 0 1 -5.29897,4.60601 57.58252,57.072835 0 0 1 -0.15574,0.12177 57.58252,57.072835 0 0 0 5.59264,-4.86137 z m -5.59141,4.87401 a 57.58252,57.072835 0 0 1 -0.0344,0.0298 57.58252,57.072835 0 0 1 -0.0522,0.0344 57.58252,57.072835 0 0 0 0.0494,-0.0352 57.58252,57.072835 0 0 0 0.0373,-0.029 z m -0.085,0.0497 a 57.58252,57.072835 0 0 1 -0.24956,0.17915 57.58252,57.072835 0 0 1 -4.12916,2.73441 57.58252,57.072835 0 0 1 -0.26495,0.16175 57.58252,57.072835 0 0 0 4.64367,-3.07531 z m -5.1845,2.70045 a 57.58252,57.072835 0 0 1 -1.25071,0.828 57.58252,57.072835 0 0 1 -6.75276,3.30064 57.58252,57.072835 0 0 0 6.75276,-3.30105 57.58252,57.072835 0 0 0 1.25071,-0.82759 z m 0.14887,0.10148 a 57.58252,57.072835 0 0 1 0.33006,0.28643 57.58252,57.072835 0 0 1 0.0145,0.0145 57.58252,57.072835 0 0 0 -0.0141,-0.0166 57.58252,57.072835 0 0 0 -0.33006,-0.28684 z m 0.40207,0.28042 a 57.58252,57.072835 0 0 1 -0.0489,0.0323 57.58252,57.072835 0 0 0 -0.002,0 57.58252,57.072835 0 0 0 0.0506,-0.0307 z m -0.0582,0.0247 a 57.58252,57.072835 0 0 1 -1.52133,1.00798 57.58252,57.072835 0 0 1 -0.19779,0.10997 57.58252,57.072835 0 0 1 -6.35191,3.1043 57.58252,57.072835 0 0 1 -0.20549,0.0872 57.58252,57.072835 0 0 1 -0.2168,0.0857 57.58252,57.072835 0 0 1 -6.68926,2.25123 57.58252,57.072835 0 0 1 -0.22651,0.0629 57.58252,57.072835 0 0 1 -0.32967,0.0777 57.58252,57.072835 0 0 1 -4.9689,0.98022 57.58252,57.072835 0 0 1 -0.33978,0.0536 57.58252,57.072835 0 0 0 5.63835,-1.11112 57.58252,57.072835 0 0 0 7.13257,-2.40034 57.58252,57.072835 0 0 0 6.75519,-3.30146 57.58252,57.072835 0 0 0 1.52133,-1.00757 z m -56.751607,2.1338 a 57.58252,57.072835 0 0 1 0.01534,0.0311 57.58252,57.072835 0 0 0 -0.01495,-0.0311 z m 0.01573,0.0315 a 57.58252,57.072835 0 0 0 0.144004,0.07 57.58252,57.072835 0 0 0 0.495909,0.25475 57.58252,57.072835 0 0 1 -0.199009,-0.0971 57.58252,57.072835 0 0 1 -0.2969,-0.15719 57.58252,57.072835 0 0 1 -0.144004,-0.0704 z m 0.08009,0.0514 a 57.58252,57.072835 0 0 0 0.07162,0.0348 57.58252,57.072835 0 0 1 -0.07162,-0.0352 z m 0.07201,0.0356 a 57.58252,57.072835 0 0 1 0.01949,0.0391 57.58252,57.072835 0 0 0 -0.01988,-0.0379 z m 3.719819,1.81776 a 57.58252,57.072835 0 0 0 0.515729,0.239 57.58252,57.072835 0 0 0 0.452239,0.16506 57.58252,57.072835 0 0 1 -0.192136,-0.0646 57.58252,57.072835 0 0 1 -0.260103,-0.10003 57.58252,57.072835 0 0 1 -0.317119,-0.14229 57.58252,57.072835 0 0 1 -0.19861,-0.0971 z m 30.239348,0.33489 a 57.58252,57.072835 0 0 1 1.30572,2.83693 v 0.002 a 57.58252,57.072835 0 0 0 -1.30572,-2.83921 z m -32.659082,0.4604 a 57.58252,57.072835 0 0 1 0.01135,0.0222 57.58252,57.072835 0 0 1 0.03115,0.0911 57.58252,57.072835 0 0 0 -0.03076,-0.0899 57.58252,57.072835 0 0 0 -0.01135,-0.0234 z m 8.132512,1.20534 a 57.58252,57.072835 0 0 0 0.45667,0.14084 57.58252,57.072835 0 0 0 -0.005,0 57.58252,57.072835 0 0 1 -0.26252,-0.076 57.58252,57.072835 0 0 1 -0.18971,-0.064 z m 0.36525,0.12303 a 57.58252,57.072835 0 0 1 0.003,0 57.58252,57.072835 0 0 0 0.034,0.0124 57.58252,57.072835 0 0 1 -0.0368,-0.0124 z m -7.973126,0.19613 a 57.58252,57.072835 0 0 1 0.007,0.0166 57.58252,57.072835 0 0 1 0.0039,0.0103 57.58252,57.072835 0 0 0 -0.01057,-0.0279 z m 9.504976,0.31914 a 57.58252,57.072835 0 0 0 0.0388,0.0125 57.58252,57.072835 0 0 0 0.0251,0.006 57.58252,57.072835 0 0 1 -0.0251,-0.004 57.58252,57.072835 0 0 1 -0.0388,-0.0125 z m 2.29798,0.44549 a 57.58252,57.072835 0 0 0 5.12746,1.01088 57.58252,57.072835 0 0 1 -0.33775,-0.0535 57.58252,57.072835 0 0 1 -4.46327,-0.88019 57.58252,57.072835 0 0 1 -0.32644,-0.0773 z m 0.0599,0.0247 a 57.58252,57.072835 0 0 0 0.0271,0.004 57.58252,57.072835 0 0 1 0.003,0 57.58252,57.072835 0 0 1 -0.0299,-0.006 z m 20.0997,0.98623 a 57.58252,57.072835 0 0 1 -0.24555,0.0294 57.58252,57.072835 0 0 1 -7.02942,0.45626 57.58252,57.072835 0 0 1 -0.24108,0.002 57.58252,57.072835 0 0 1 -0.33777,-0.008 57.58252,57.072835 0 0 1 -4.80547,-0.31231 57.58252,57.072835 0 0 1 -0.33412,-0.0344 57.58252,57.072835 0 0 0 5.47736,0.3556 57.58252,57.072835 0 0 0 7.51605,-0.48855 z M 111.4859,156.189 a 57.58252,57.072835 0 0 1 0.003,0.0125 57.58252,57.072835 0 0 0 -0.003,-0.0125 z m -17.460728,2.4631 a 57.58252,57.072835 0 0 1 0.0031,0.008 57.58252,57.072835 0 0 1 0.0039,0.0145 57.58252,57.072835 0 0 0 -0.007,-0.023 z m 0.355162,1.24387 a 57.58252,57.072835 0 0 1 0.04,0.14021 57.58252,57.072835 0 0 1 0.233411,0.90339 57.58252,57.072835 0 0 0 -0.233411,-0.90174 57.58252,57.072835 0 0 0 -0.04,-0.14186 z m 1.617594,9.09709 a 92.483028,91.534308 0 0 1 0.02834,0.0145 57.58252,57.072835 0 0 1 0.0429,0.6472 57.58252,57.072835 0 0 0 -0.07123,-0.65942 v 0 z m 0.367694,5.15256 a 57.58252,57.072835 0 0 1 0.03154,0.47448 57.58252,57.072835 0 0 1 -0.01534,0.23465 57.58252,57.072835 0 0 0 0,-0.0442 57.58252,57.072835 0 0 0 -0.0166,-0.66501 z m 43.078628,60.79587 a 57.58252,57.072835 0 0 1 -0.0222,0.0145 57.58252,57.072835 0 0 0 0.023,-0.0166 z m -4.07576,2.70044 a 57.58252,57.072835 0 0 1 -0.0215,0.0145 57.58252,57.072835 0 0 1 -0.0149,0.006 57.58252,57.072835 0 0 0 0.0153,-0.008 57.58252,57.072835 0 0 0 0.0211,-0.0125 z" />
    <path
       id="path25274"
       style="display:inline;fill:#ff0000;stroke:none;stroke-width:1.43474;stroke-miterlimit:2;stroke-dasharray:none;stop-color:#000000"
       d="m 96.026405,169.00866 a 92.483059,91.53434 0 0 0 -0.02834,-0.0141 57.58252,57.072835 0 0 1 0.38428,5.81464 57.58252,57.072835 0 0 1 -0.480943,7.27536 57.58252,57.072835 0 0 0 0.0031,-0.0149 57.58252,57.072835 0 0 0 0.492685,-7.44936 57.58252,57.072835 0 0 0 -0.370926,-5.61137 z" />
    <path
       id="path25234"
       style="display:inline;fill:#ff0000;stroke:none;stroke-width:1.43474;stroke-miterlimit:2;stroke-dasharray:none;stop-color:#000000"
       d="m 65.223582,124.22553 a 57.58252,57.072835 0 0 0 -0.0078,0 57.58252,57.072835 0 0 0 0.0039,0.008 57.58252,57.072835 0 0 1 0.007,0 57.58252,57.072835 0 0 1 -0.0039,-0.008 z" />
    <path
       id="path25232"
       style="display:inline;fill:#ff0000;stroke:none;stroke-width:1.43474;stroke-miterlimit:2;stroke-dasharray:none;stop-color:#000000"
       d="m 65.223582,124.22553 a 57.58252,57.072835 0 0 0 0.0039,0.008 57.58252,57.072835 0 0 1 0.09181,0.0446 57.58252,57.072835 0 0 1 -0.0039,-0.008 57.58252,57.072835 0 0 0 -0.09142,-0.0446 z" />
    <path
       id="path25230"
       style="display:inline;fill:#ff0000;stroke:none;stroke-width:1.43474;stroke-miterlimit:2;stroke-dasharray:none;stop-color:#000000"
       d="m 65.094137,123.96581 a 57.58252,57.072835 0 0 1 -1.319481,-2.65237 57.58252,57.072835 0 0 1 -0.03358,-0.0986 57.58252,57.072835 0 0 0 -0.0039,6.2e-4 57.58252,57.072835 0 0 0 0.03804,0.111 57.58252,57.072835 0 0 0 1.311387,2.63563 57.58252,57.072835 0 0 1 0.007,0 z" />
    <path
       id="path25228"
       style="display:inline;fill:#ff0000;stroke:none;stroke-width:1.43474;stroke-miterlimit:2;stroke-dasharray:none;stop-color:#000000"
       d="m 65.094137,123.96581 a 57.58252,57.072835 0 0 0 -0.007,0 57.58252,57.072835 0 0 0 0.129046,0.25972 57.58252,57.072835 0 0 1 0.0078,0 57.58252,57.072835 0 0 1 -0.129444,-0.25972 z" />
    <path
       id="path25226"
       style="display:inline;fill:#00ffff;stroke:none;stroke-width:1.43474;stroke-miterlimit:2;stroke-dasharray:none;stop-color:#000000"
       d="m 63.753882,121.13254 a 92.483051,91.534332 0 0 1 -0.03521,0.0145 v 0 a 92.483051,91.53434 0 0 1 -0.0029,0 57.58252,57.072835 0 0 0 0.02264,0.0658 57.58252,57.072835 0 0 1 0.0029,0 57.58252,57.072835 0 0 0 0.03357,0.0988 57.58252,57.072835 0 0 0 1.319486,2.65219 57.58252,57.072835 0 0 1 0.09142,0.0441 57.58252,57.072835 0 0 1 -1.395536,-2.8044 57.58252,57.072835 0 0 1 -0.036,-0.0727 z m -0.03925,0.0166 a 92.483051,91.534332 0 0 1 -0.301359,0.12986 57.58252,57.072835 0 0 1 0.324016,-0.064 57.58252,57.072835 0 0 1 -0.02265,-0.0658 z m 0.02265,0.0658 a 57.58252,57.072835 0 0 0 -0.324016,0.0644 v 0 a 92.483051,91.534332 0 0 1 -0.692911,0.29843 92.483051,91.534332 0 0 1 -1.397544,0.54448 57.58252,57.072835 0 0 1 3.763884,1.83972 57.58252,57.072835 0 0 1 -1.311388,-2.63542 57.58252,57.072835 0 0 1 -0.03803,-0.11121 z" />
    <path
       id="path25224"
       style="display:inline;fill:#ff0000;stroke:none;stroke-width:1.43474;stroke-miterlimit:2;stroke-dasharray:none;stop-color:#000000"
       d="m 65.18597,124.01082 a 57.58252,57.072835 0 0 0 -0.09183,-0.0446 57.58252,57.072835 0 0 0 0.129445,0.25972 57.58252,57.072835 0 0 1 0.09142,0.0446 57.58252,57.072835 0 0 1 -0.12903,-0.25948 z" />
    <path
       id="path25222"
       style="display:inline;fill:#ff0000;stroke:none;stroke-width:1.43474;stroke-miterlimit:2;stroke-dasharray:none;stop-color:#000000"
       d="m 81.802502,136.82975 a 57.58252,57.072835 0 0 1 0.265754,0.3005 92.483059,91.53434 0 0 1 0.07483,-0.46723 57.58252,57.072835 0 0 0 -0.340578,0.16673 z" />
    <path
       id="path25220"
       style="display:inline;fill:#00ffff;stroke:none;stroke-width:1.43474;stroke-miterlimit:2;stroke-dasharray:none;stop-color:#000000"
       d="m 81.802502,136.82975 a 57.58252,57.072835 0 0 1 0.340578,-0.16673 92.483059,91.53434 0 0 1 1.008436,-6.30238 92.483059,91.53434 0 0 1 2.306055,-8.51759 57.58252,57.072835 0 0 0 -4.935334,-0.97297 57.58252,57.072835 0 0 0 -7.516043,-0.48821 57.58252,57.072835 0 0 0 -7.516051,0.48821 57.58252,57.072835 0 0 0 -1.700121,0.3351 57.58252,57.072835 0 0 0 1.395948,2.80564 57.58252,57.072835 0 0 1 2.420126,1.18252 57.58252,57.072835 0 0 1 6.262894,4.14752 57.58252,57.072835 0 0 1 5.662626,4.92223 57.58252,57.072835 0 0 1 2.270886,2.56666 z" />
    <path
       id="path25218"
       style="display:inline;fill:#ff0000;stroke:none;stroke-width:1.43474;stroke-miterlimit:2;stroke-dasharray:none;stop-color:#000000"
       d="m 81.675483,136.89167 a 57.58252,57.072835 0 0 1 0.364852,0.41298 92.483059,91.53434 0 0 1 0.02795,-0.1744 57.58252,57.072835 0 0 0 -0.265755,-0.3005 57.58252,57.072835 0 0 0 -0.127018,0.0618 z" />
    <path
       id="path25216"
       style="display:inline;fill:#ff0000;stroke:none;stroke-width:1.43474;stroke-miterlimit:2;stroke-dasharray:none;stop-color:#000000"
       d="m 81.675483,136.89167 a 57.58252,57.072835 0 0 1 0.127019,-0.0618 57.58252,57.072835 0 0 0 -2.270886,-2.56667 57.58252,57.072835 0 0 0 -5.662626,-4.92222 57.58252,57.072835 0 0 0 -6.262894,-4.14752 57.58252,57.072835 0 0 0 -2.420126,-1.18252 57.58252,57.072835 0 0 0 0.12903,0.25949 57.58252,57.072835 0 0 1 2.276122,1.11253 57.58252,57.072835 0 0 1 6.262917,4.14729 57.58252,57.072835 0 0 1 5.663018,4.92246 57.58252,57.072835 0 0 1 2.158426,2.43908 z" />
    <path
       id="path25214"
       style="display:inline;fill:#ff0000;stroke:none;stroke-width:1.43474;stroke-miterlimit:2;stroke-dasharray:none;stop-color:#000000"
       d="m 81.659703,136.89934 a 57.58252,57.072835 0 0 1 0.377407,0.42684 92.483059,91.53434 0 0 1 0.0031,-0.0211 57.58252,57.072835 0 0 0 -0.364852,-0.41298 57.58252,57.072835 0 0 0 -0.01581,0.008 z" />
    <path
       id="path25212"
       style="display:inline;fill:#ff0000;stroke:none;stroke-width:1.43474;stroke-miterlimit:2;stroke-dasharray:none;stop-color:#000000"
       d="m 81.659703,136.89934 a 57.58252,57.072835 0 0 1 0.01581,-0.008 57.58252,57.072835 0 0 0 -2.158427,-2.43907 57.58252,57.072835 0 0 0 -5.663018,-4.92246 57.58252,57.072835 0 0 0 -6.262916,-4.14729 57.58252,57.072835 0 0 0 -2.276122,-1.11254 57.58252,57.072835 0 0 0 0.0039,0.008 57.58252,57.072835 0 0 1 2.241767,1.09578 57.58252,57.072835 0 0 1 6.262893,4.14729 57.58252,57.072835 0 0 1 5.662619,4.92246 57.58252,57.072835 0 0 1 2.173385,2.45606 z" />
    <path
       id="path25202"
       style="display:inline;fill:#ffffff;stroke:none;stroke-width:1.43474;stroke-miterlimit:2;stroke-dasharray:none;stop-color:#000000"
       d="m 76.235332,139.81621 a 57.58252,57.072835 0 0 0 0.02262,0.0258 57.58252,57.072835 0 0 0 5.14163,4.46932 92.483059,91.53434 0 0 1 7.83e-4,-0.0117 57.58252,57.072835 0 0 1 -5.143243,-4.47057 57.58252,57.072835 0 0 1 -0.01534,-0.0172 57.58252,57.072835 0 0 0 -0.0063,0.008 z" />
    <path
       id="path25196"
       style="display:inline;fill:url(#linearGradient19371);fill-opacity:1;stroke:none;stroke-width:1.43474;stroke-miterlimit:2;stroke-dasharray:none;stop-color:#000000"
       d="m 51.979544,157.84871 a 92.483051,91.534332 0 0 0 -9.667206,0.50136 92.483051,91.534332 0 0 0 -9.560789,1.49882 92.483051,91.534332 0 0 0 -9.350877,2.47986 92.483051,91.534332 0 0 0 -6.433198,2.44409 57.58252,57.072835 0 0 0 -0.05417,0.26856 92.483051,91.534332 0 0 1 1.058188,-0.28062 92.483051,91.534332 0 0 1 9.561204,-1.49882 92.483051,91.534332 0 0 1 9.667182,-0.50121 92.483051,91.534332 0 0 1 9.667183,0.50121 92.483051,91.534332 0 0 1 6.258861,0.98111 92.483051,91.53434 0 0 1 1.204212,0.18888 92.483051,91.534332 0 0 1 2.098139,0.32883 92.483051,91.534332 0 0 1 9.350478,2.47986 92.483051,91.534332 0 0 1 9.037374,3.43342 92.483051,91.534332 0 0 1 8.625197,4.35002 92.483051,91.534332 0 0 1 1.815006,1.16623 92.483059,91.53434 0 0 0 7.83e-4,0 92.483059,91.53434 0 0 1 0.0088,0.008 92.483059,91.53434 0 0 1 -0.128216,-0.41502 92.483051,91.534332 0 0 1 -0.897182,-3.04383 92.483059,91.53434 0 0 1 -0.08172,-0.30215 92.483051,91.534332 0 0 0 1.106727,3.75521 92.483051,91.534332 0 0 1 6.294454,4.046 92.483051,91.534332 0 0 1 4.051083,3.2472 57.58252,57.072835 0 0 0 0.249582,-1.24263 57.58252,57.072835 0 0 0 0.492677,-7.44952 57.58252,57.072835 0 0 0 -0.385086,-5.82091 92.483051,91.534332 0 0 0 -6.372128,-3.21408 92.483051,91.534332 0 0 0 -7.305708,-2.77496 92.483051,91.534332 0 0 0 0.869692,5.43297 92.483051,91.534332 0 0 0 0.938849,3.79936 92.483059,91.53434 0 0 1 -0.08454,-0.31279 92.483051,91.534332 0 0 1 -0.750752,-3.03844 92.483059,91.53434 0 0 1 -0.103159,-0.44257 92.483059,91.53434 0 0 1 -0.0526,-0.28555 92.483051,91.534332 0 0 1 -0.779878,-4.87463 92.483059,91.53434 0 0 1 -0.03718,-0.27303 l -4.15e-4,-0.008 a 92.483059,91.53434 0 0 0 -0.007,0 92.483051,91.534332 0 0 1 -3.99e-4,0 92.483051,91.534332 0 0 0 -1.724395,-0.6551 92.483051,91.534332 0 0 0 -9.350869,-2.47985 92.483051,91.534332 0 0 0 -8.50545,-1.33336 92.483051,91.534332 0 0 0 -1.055762,-0.16547 92.483051,91.534332 0 0 0 -3.916785,-0.20336 92.483051,91.534332 0 0 0 -5.750397,-0.298 z m 32.104496,14.34116 a 92.483059,91.53434 0 0 0 0.07522,0.27623 92.483051,91.534332 0 0 1 -0.07522,-0.27623 z" />
    <path
       id="path25182"
       style="display:inline;fill:#ff0000;stroke:none;stroke-width:1.43474;stroke-miterlimit:2;stroke-dasharray:none;stop-color:#000000"
       d="m 63.568212,226.01982 a 57.58252,57.072835 0 0 1 -2.012004,0.98333 57.58252,57.072835 0 0 0 0.372562,-0.0243 57.58252,57.072835 0 0 0 0.798886,-0.3819 57.58252,57.072835 0 0 1 -0.798886,0.3819 57.58252,57.072835 0 0 0 0.05702,0 57.58252,57.072835 0 0 0 0.0089,-0.004 57.58252,57.072835 0 0 0 1.255988,-0.0816 57.58252,57.072835 0 0 0 0.928327,-0.18287 57.58252,57.072835 0 0 1 -0.498356,-0.56312 57.58252,57.072835 0 0 1 -0.01491,-0.0166 57.58252,57.072835 0 0 1 -0.09707,-0.10998 z m 0.02547,0.14642 a 57.58252,57.072835 0 0 1 -0.720415,0.35953 57.58252,57.072835 0 0 0 0.720415,-0.35953 z" />
    <path
       id="path25162"
       style="display:inline;fill:#ff0000;stroke:none;stroke-width:1.43474;stroke-miterlimit:2;stroke-dasharray:none;stop-color:#000000"
       d="m 140.04222,234.5464 a 92.483059,91.53434 0 0 0 3.27045,1.24263 92.483059,91.53434 0 0 0 -4e-4,0 92.483059,91.53434 0 0 1 -3.26801,-1.24146 z" />
    <path
       id="path25158"
       style="display:inline;fill:#ff0000;stroke:none;stroke-width:1.43474;stroke-miterlimit:2;stroke-dasharray:none;stop-color:#000000"
       d="m 139.70493,234.41826 a 92.483059,91.53434 0 0 0 0.33612,0.12783 92.483059,91.53434 0 0 1 -0.33729,-0.12814 z" />
    <path
       id="path25154"
       style="display:inline;fill:#ff0000;stroke:none;stroke-width:1.43474;stroke-miterlimit:2;stroke-dasharray:none;stop-color:#000000"
       d="m 125.55543,227.49077 a 92.483059,91.53434 0 0 1 0.002,0.008 92.483059,91.53434 0 0 0 1.81536,1.16701 92.483059,91.53434 0 0 0 8.62559,4.34964 92.483059,91.53434 0 0 0 3.70644,1.4081 92.483059,91.53434 0 0 1 -3.70041,-1.40568 92.483059,91.53434 0 0 1 -8.6252,-4.34955 92.483059,91.53434 0 0 1 -1.82386,-1.17226 z" />
    <path
       id="path25146"
       style="display:inline;fill:#ff0000;stroke:none;stroke-width:1.43474;stroke-miterlimit:2;stroke-dasharray:none;stop-color:#000000"
       d="m 100.84806,205.69696 a 57.58252,57.072835 0 0 1 -0.004,0.008 92.483059,91.53434 0 0 0 4.041,4.93905 92.483059,91.53434 0 0 0 6.84496,6.77501 92.483059,91.53434 0 0 0 1.27378,1.02088 57.58252,57.072835 0 0 0 0.004,0 92.483059,91.53434 0 0 1 -1.27012,-1.01814 92.483059,91.53434 0 0 1 -6.84499,-6.77454 92.483059,91.53434 0 0 1 -4.04462,-4.94359 z" />
    <path
       id="path25138"
       style="display:inline;fill:#ff0000;stroke:none;stroke-width:1.43474;stroke-miterlimit:2;stroke-dasharray:none;stop-color:#000000"
       d="m 92.896364,193.93209 a 57.58252,57.072835 0 0 1 -0.0031,0.008 92.483059,91.53434 0 0 0 0.0202,0.0391 57.58252,57.072835 0 0 0 0.0031,-0.008 92.483059,91.53434 0 0 1 -0.0202,-0.0391 z" />
    <path
       id="path25134"
       style="display:inline;fill:#ff0000;stroke:none;stroke-width:1.43474;stroke-miterlimit:2;stroke-dasharray:none;stop-color:#000000"
       d="m 92.88665,193.91268 a 57.58252,57.072835 0 0 1 -0.0031,0.009 92.483059,91.53434 0 0 0 0.0097,0.0188 57.58252,57.072835 0 0 0 0.0031,-0.008 92.483059,91.53434 0 0 1 -0.0097,-0.0196 z" />
    <path
       id="path25132"
       style="display:inline;fill:#ff0000;stroke:none;stroke-width:1.43474;stroke-miterlimit:2;stroke-dasharray:none;stop-color:#000000"
       d="m 92.88665,193.91268 a 92.483059,91.53434 0 0 0 0.0097,0.0196 57.58252,57.072835 0 0 0 1.493418,-4.36059 57.58252,57.072835 0 0 0 0.02309,-0.1153 57.58252,57.072835 0 0 1 -1.5262,4.45648 z" />
    <path
       id="path25114"
       style="display:inline;fill:#ffffff;stroke:none;stroke-width:1.43474;stroke-miterlimit:2;stroke-dasharray:none;stop-color:#000000"
       d="m 81.407302,144.30541 a 57.58252,57.072835 0 0 1 -0.007,-0.008 92.483059,91.53434 0 0 0 -7.83e-4,0.0117 57.58252,57.072835 0 0 0 0.007,0.008 92.483059,91.53434 0 0 1 7.83e-4,-0.0117 z" />
    <path
       id="path25110"
       style="display:inline;fill:#ffffff;stroke:none;stroke-width:1.43474;stroke-miterlimit:2;stroke-dasharray:none;stop-color:#000000"
       d="m 81.427122,143.92953 a 57.58252,57.072835 0 0 1 -0.007,-0.008 92.483059,91.53434 0 0 0 -0.0198,0.37573 57.58252,57.072835 0 0 0 0.007,0.008 92.483059,91.53434 0 0 1 0.0198,-0.37588 z" />
    <path
       id="path25102"
       style="display:inline;fill:#ff0000;stroke:none;stroke-width:1.43474;stroke-miterlimit:2;stroke-dasharray:none;stop-color:#000000"
       d="m 82.046409,137.31146 a 57.58252,57.072835 0 0 0 -0.0063,-0.008 92.483059,91.53434 0 0 0 -0.0031,0.0211 57.58252,57.072835 0 0 1 0.0063,0.008 92.483059,91.53434 0 0 1 0.0031,-0.0211 z" />
    <path
       id="path25100"
       style="display:inline;fill:#ff0000;stroke:none;stroke-width:1.43474;stroke-miterlimit:2;stroke-dasharray:none;stop-color:#000000"
       d="m 82.046409,137.31146 a 92.483059,91.53434 0 0 0 -0.0031,0.0211 57.58252,57.072835 0 0 1 2.409622,2.72345 57.58252,57.072835 0 0 1 4.184559,6.20751 57.58252,57.072835 0 0 1 1.565032,3.14489 57.58252,57.072835 0 0 0 0.03397,0.0164 57.58252,57.072835 0 0 0 -1.568242,-3.15209 57.58252,57.072835 0 0 0 -4.184989,-6.20759 57.58252,57.072835 0 0 0 -2.436713,-2.7539 z" />
    <path
       id="path25098"
       style="display:inline;fill:#ff0000;stroke:none;stroke-width:1.43474;stroke-miterlimit:2;stroke-dasharray:none;stop-color:#000000"
       d="m 82.074323,137.13667 a 57.58252,57.072835 0 0 0 -0.0063,-0.008 92.483059,91.53434 0 0 0 -0.02794,0.1744 57.58252,57.072835 0 0 1 0.0063,0.008 92.483059,91.53434 0 0 1 0.02795,-0.17479 z" />
    <path
       id="path25096"
       style="display:inline;fill:#ff0000;stroke:none;stroke-width:1.43474;stroke-miterlimit:2;stroke-dasharray:none;stop-color:#000000"
       d="m 82.074323,137.13667 a 92.483059,91.53434 0 0 0 -0.02795,0.17479 57.58252,57.072835 0 0 1 2.436713,2.7539 57.58252,57.072835 0 0 1 4.184989,6.2076 57.58252,57.072835 0 0 1 1.568242,3.15209 57.58252,57.072835 0 0 0 0.143996,0.0704 57.58252,57.072835 0 0 0 -1.697679,-3.41228 57.58252,57.072835 0 0 0 -4.184574,-6.20752 57.58252,57.072835 0 0 0 -2.423774,-2.73942 z" />
    <path
       id="path25094"
       style="display:inline;fill:#ff0000;stroke:none;stroke-width:1.43474;stroke-miterlimit:2;stroke-dasharray:none;stop-color:#000000"
       d="m 82.150767,136.6595 a 57.58252,57.072835 0 0 0 -0.0078,0 92.483059,91.53434 0 0 0 -0.07483,0.46723 57.58252,57.072835 0 0 1 0.0063,0.008 92.483059,91.53434 0 0 1 0.07648,-0.47717 z" />
    <path
       id="path25090"
       style="display:inline;fill:#ff0000;stroke:none;stroke-width:1.43474;stroke-miterlimit:2;stroke-dasharray:none;stop-color:#000000"
       d="m 85.464444,121.8443 a 57.58252,57.072835 0 0 0 -0.007,0 92.483059,91.53434 0 0 0 -2.306055,8.51759 92.483059,91.53434 0 0 0 -1.008436,6.30239 57.58252,57.072835 0 0 1 0.0078,0 92.483059,91.53434 0 0 1 1.008022,-6.29847 92.483059,91.53434 0 0 1 2.305655,-8.51673 z" />
    <path
       id="path25088"
       style="display:inline;fill:#00ffff;stroke:none;stroke-width:1.43474;stroke-miterlimit:2;stroke-dasharray:none;stop-color:#000000"
       d="m 85.464444,121.8443 a 92.483059,91.53434 0 0 0 -2.305656,8.51673 92.483059,91.53434 0 0 0 -1.008021,6.29847 57.58252,57.072835 0 0 1 2.369176,-1.15809 57.58252,57.072835 0 0 1 7.13257,-2.39994 57.58252,57.072835 0 0 1 6.459499,-1.27331 57.58252,57.072835 0 0 0 -1.660068,-1.87612 57.58252,57.072835 0 0 0 -5.663033,-4.92206 57.58252,57.072835 0 0 0 -4.592306,-3.04134 57.58252,57.072835 0 0 0 -0.732161,-0.14434 z" />
    <path
       id="path25086"
       style="display:inline;fill:#ff0000;stroke:none;stroke-width:1.43474;stroke-miterlimit:2;stroke-dasharray:none;stop-color:#000000"
       d="m 85.542524,121.55578 a 57.58252,57.072835 0 0 0 -0.0063,-0.008 92.483059,91.53434 0 0 0 -0.07889,0.29166 57.58252,57.072835 0 0 1 0.007,0 92.483059,91.53434 0 0 1 0.07812,-0.28853 z" />
    <path
       id="path25084"
       style="display:inline;fill:#ff0000;stroke:none;stroke-width:1.43474;stroke-miterlimit:2;stroke-dasharray:none;stop-color:#000000"
       d="m 85.542524,121.55578 a 92.483059,91.53434 0 0 0 -0.07812,0.28852 57.58252,57.072835 0 0 1 0.732162,0.14434 57.58252,57.072835 0 0 0 -0.654081,-0.43286 z" />
    <path
       id="path25082"
       style="display:inline;fill:url(#linearGradient15950);fill-opacity:1;stroke:none;stroke-width:1.43474;stroke-miterlimit:2;stroke-dasharray:none;stop-color:#000000"
       d="m 161.08066,59.31295 v 0 a 92.483051,91.534324 0 0 0 -5.28482,0.828834 92.483051,91.534324 0 0 0 -0.25969,0.04059 92.483051,91.534324 0 0 0 -0.009,0 92.483051,91.534324 0 0 0 -3.46375,0.543236 92.483051,91.534324 0 0 0 -4.43091,1.175736 34.596161,34.289939 0 0 0 -0.0106,0.0041 92.483059,91.53434 0 0 0 -4.90985,1.301656 92.483059,91.53434 0 0 0 -2.74089,0.934042 92.483051,91.53434 0 0 1 5.07082,-1.807404 92.483051,91.53434 0 0 1 4.91957,-1.304555 34.596161,34.289939 0 0 1 0.011,-0.0083 92.483051,91.53434 0 0 0 -4.93775,1.309524 92.483051,91.53434 0 0 0 -5.18491,1.854211 92.483059,91.53434 0 0 0 -6.17513,2.455644 92.483059,91.53434 0 0 0 -8.62519,4.349618 92.483059,91.53434 0 0 0 -8.11875,5.218424 92.483059,91.53434 0 0 0 -4.34232,3.479985 92.483059,91.53434 0 0 1 2.79834,0.742263 92.483059,91.53434 0 0 1 9.03737,3.433801 92.483059,91.53434 0 0 1 2.80522,1.414941 34.596161,34.289939 0 0 1 0,-0.002 34.596161,34.289939 0 0 1 0.92915,-3.437734 34.596161,34.289939 0 0 0 -0.92915,3.437734 92.483051,91.534324 0 0 1 5.81998,2.934678 92.483051,91.534324 0 0 1 8.11877,5.218217 92.483051,91.534324 0 0 1 7.52291,6.029446 92.483051,91.534324 0 0 1 6.84499,6.775033 92.483051,91.534324 0 0 1 2.49052,3.04382 34.596161,34.289939 0 0 1 0.10193,-1.15316 34.596161,34.289939 0 0 1 1.56057,-5.77347 34.596161,34.289939 0 0 1 2.54877,-5.417247 34.596161,34.289939 0 0 1 3.45889,-4.895961 34.596161,34.289939 0 0 1 4.26426,-4.227012 34.596161,34.289939 0 0 1 0.56994,-0.394949 34.596161,34.289939 0 0 1 0.0906,-0.06254 v 0 a 34.596161,34.289939 0 0 1 4.27802,-2.969057 34.596161,34.289939 0 0 1 5.46563,-2.526473 34.596161,34.289939 0 0 1 5.82482,-1.546452 34.596161,34.289939 0 0 1 6.00766,-0.521076 34.596161,34.289939 0 0 1 0.0182,0 34.596161,34.289939 0 0 0 -1.58646,-3.371462 34.596161,34.289939 0 0 0 -3.45889,-4.896168 34.596161,34.289939 0 0 0 -4.26427,-4.226598 34.596161,34.289939 0 0 0 -4.93976,-3.428623 34.596161,34.289939 0 0 0 -5.46565,-2.525645 34.596161,34.289939 0 0 0 -5.82522,-1.547281 34.596161,34.289939 0 0 0 -5.59547,-0.484833 z m -13.48771,2.608487 a 34.596161,34.289939 0 0 0 -4.18538,1.933946 34.596161,34.289939 0 0 1 4.18538,-1.933946 z m -4.28652,1.991728 a 34.596161,34.289939 0 0 0 -2.40595,1.518908 34.596161,34.289939 0 0 1 2.40595,-1.518908 z m -2.54633,1.616041 a 34.596161,34.289939 0 0 0 -2.27735,1.732018 34.596161,34.289939 0 0 1 2.27735,-1.732018 z m -2.37241,1.810926 a 34.596161,34.289939 0 0 0 -2.13051,1.935188 34.596161,34.289939 0 0 1 2.13051,-1.935188 z m -2.22354,2.026936 a 34.596161,34.289939 0 0 0 -1.96547,2.126139 34.596161,34.289939 0 0 1 1.96547,-2.126139 z m -2.02169,2.191999 a 34.596161,34.289939 0 0 0 -1.78993,2.312119 34.596161,34.289939 0 0 1 1.78993,-2.312119 z m -1.82915,2.367209 a 34.596161,34.289939 0 0 0 -1.59051,2.474283 34.596161,34.289939 0 0 1 1.59051,-2.474283 z m -1.61439,2.515704 a 34.596161,34.289939 0 0 0 -1.37611,2.619878 34.596161,34.289939 0 0 1 1.37611,-2.619878 z m 37.08799,1.961284 a 57.58252,57.072835 0 0 1 0.32198,0.800875 57.58252,57.072835 0 0 1 0.43239,1.138042 57.58252,57.072835 0 0 0 -0.75437,-1.938917 z m -38.47624,0.683654 a 34.596161,34.289939 0 0 0 -1.14837,2.747454 34.596161,34.289939 0 0 1 1.14837,-2.747454 z m 40.25726,4.307161 a 57.58252,57.072835 0 0 1 0.26372,0.854722 57.58252,57.072835 0 0 1 0.21034,0.738122 57.58252,57.072835 0 0 0 -0.47406,-1.592844 z" />
    <path
       id="path25056"
       style="display:inline;fill:#ff0000;stroke:none;stroke-width:1.43474;stroke-miterlimit:2;stroke-dasharray:none;stop-color:#000000"
       d="m 172.47357,240.86687 a 92.483059,91.53434 0 0 1 -8.52002,-0.44218 92.483059,91.53434 0 0 1 -9.56078,-1.4986 92.483059,91.53434 0 0 1 -6.42065,-1.70305 92.483059,91.53434 0 0 0 6.41502,1.70102 92.483059,91.53434 0 0 0 9.56116,1.49898 92.483059,91.53434 0 0 0 8.52691,0.44218 z" />
    <path
       id="path25050"
       style="display:inline;fill:#ffffff;stroke:none;stroke-width:1.43474;stroke-miterlimit:2;stroke-dasharray:none;stop-color:#000000"
       d="m 163.40624,58.44341 a 34.596161,34.289939 0 0 1 0.008,4.7e-4 92.483059,91.53434 0 0 1 0.54284,-0.08516 92.483059,91.53434 0 0 1 9.66723,-0.500966 92.483059,91.53434 0 0 0 -0.008,-3.91e-4 92.483059,91.53434 0 0 0 -9.66723,0.501357 92.483059,91.53434 0 0 0 -0.54042,0.08469 z" />
    <path
       id="path25044"
       style="display:inline;fill:#ffffff;stroke:none;stroke-width:1.43474;stroke-miterlimit:2;stroke-dasharray:none;stop-color:#000000"
       d="m 157.86462,59.312273 a 92.483059,91.53434 0 0 1 0.26011,-0.0407 57.58252,57.072835 0 0 0 -7.8e-4,0 92.483059,91.53434 0 0 0 -0.2605,0.0407 z" />
    <path
       id="path25040"
       style="display:inline;fill:#ffffff;stroke:none;stroke-width:1.43474;stroke-miterlimit:2;stroke-dasharray:none;stop-color:#000000"
       d="m 157.85531,59.313447 a 57.58252,57.072835 0 0 1 7.8e-4,0 92.483059,91.53434 0 0 1 0.009,0 92.483059,91.53434 0 0 0 -0.009,0 z" />
    <path
       id="path25036"
       style="display:inline;fill:#ffffff;stroke:none;stroke-width:1.43474;stroke-miterlimit:2;stroke-dasharray:none;stop-color:#000000"
       d="m 149.97277,61.027689 a 34.596161,34.289939 0 0 0 -0.011,0.0078 92.483059,91.53434 0 0 1 4.43096,-1.175156 92.483059,91.53434 0 0 1 3.46371,-0.543235 57.58252,57.072835 0 0 0 -7.8e-4,0 92.483059,91.53434 0 0 0 -3.46981,0.544096 92.483059,91.53434 0 0 0 -4.41273,1.170146 z" />
    <path
       id="path25030"
       style="display:inline;fill:#ff0000;stroke:none;stroke-width:1.43474;stroke-miterlimit:2;stroke-dasharray:none;stop-color:#000000"
       d="m 114.91624,78.820895 a 92.483059,91.53434 0 0 1 0.002,0 92.483059,91.53434 0 0 0 -0.005,0 92.483059,91.53434 0 0 0 -0.002,0 92.483059,91.53434 0 0 1 0.005,0 z" />
    <path
       id="path25028"
       style="display:inline;fill:#ff0000;stroke:none;stroke-width:1.43474;stroke-miterlimit:2;stroke-dasharray:none;stop-color:#000000"
       d="m 114.91624,78.820895 a 92.483059,91.53434 0 0 0 -0.005,0 92.483059,91.53434 0 0 0 -3.18062,2.549211 92.483059,91.53434 0 0 0 -6.84496,6.774622 92.483059,91.53434 0 0 0 -6.0918,7.446072 92.483059,91.53434 0 0 0 -5.272688,8.03549 92.483059,91.53434 0 0 0 -4.394494,8.53662 92.483059,91.53434 0 0 0 -3.469423,8.94466 92.483059,91.53434 0 0 0 -0.120537,0.44547 57.58252,57.072835 0 0 1 0.0063,0.008 92.483059,91.53434 0 0 1 0.121758,-0.44946 92.483059,91.53434 0 0 1 3.469008,-8.94459 92.483059,91.53434 0 0 1 4.394909,-8.53709 92.483059,91.53434 0 0 1 5.272273,-8.035486 92.483059,91.53434 0 0 1 6.092204,-7.445603 92.483059,91.53434 0 0 1 6.84498,-6.775091 92.483059,91.53434 0 0 1 3.17858,-2.547567 z" />
    <path
       id="path25026"
       style="display:inline;fill:#ff0000;stroke:none;stroke-width:1.43474;stroke-miterlimit:2;stroke-dasharray:none;stop-color:#000000"
       d="m 129.55836,84.412768 a 92.483059,91.53434 0 0 0 -2.80525,-1.414915 92.483059,91.53434 0 0 0 -9.03738,-3.433572 92.483059,91.53434 0 0 0 -2.79834,-0.74229 92.483059,91.53434 0 0 0 -0.002,0 92.483059,91.53434 0 0 1 2.79308,0.740646 92.483059,91.53434 0 0 1 9.0374,3.433572 92.483059,91.53434 0 0 1 2.81167,1.417655 z" />
    <path
       id="path25022"
       style="display:inline;fill:#ff0000;stroke:none;stroke-width:1.43474;stroke-miterlimit:2;stroke-dasharray:none;stop-color:#000000"
       d="m 160.35591,108.41865 a 34.596161,34.289939 0 0 1 3.9e-4,-0.008 92.483059,91.53434 0 0 0 -2.4905,-3.04384 92.483059,91.53434 0 0 0 -6.84499,-6.775014 92.483059,91.53434 0 0 0 -7.52294,-6.029435 92.483059,91.53434 0 0 0 -8.1187,-5.218263 92.483059,91.53434 0 0 0 -5.81995,-2.934876 92.483059,91.53434 0 0 1 5.81392,2.93198 92.483059,91.53434 0 0 1 8.11839,5.217949 92.483059,91.53434 0 0 1 7.52325,6.029905 92.483059,91.53434 0 0 1 6.84499,6.774624 92.483059,91.53434 0 0 1 2.497,3.05143 z" />
    <path
       id="path25018"
       style="display:inline;fill:#ff0000;stroke:none;stroke-width:1.43474;stroke-miterlimit:2;stroke-dasharray:none;stop-color:#000000"
       d="m 169.5628,121.50772 a 57.58252,57.072835 0 0 0 0,-0.008 92.483059,91.53434 0 0 0 -0.33573,-0.65196 92.483059,91.53434 0 0 0 -5.27227,-8.03549 92.483059,91.53434 0 0 0 -3.60171,-4.40177 34.596161,34.289939 0 0 0 -3.9e-4,0.008 92.483059,91.53434 0 0 1 3.59521,4.39457 92.483059,91.53434 0 0 1 5.27227,8.03509 92.483059,91.53434 0 0 1 0.33941,0.6594 z" />
    <path
       id="path25014"
       style="display:inline;fill:#ff0000;stroke:none;stroke-width:1.43474;stroke-miterlimit:2;stroke-dasharray:none;stop-color:#000000"
       d="m 169.82408,122.01534 a 57.58252,57.072835 0 0 0 0,-0.008 92.483059,91.53434 0 0 0 -0.26136,-0.50786 57.58252,57.072835 0 0 1 0,0.008 92.483059,91.53434 0 0 1 0.26128,0.50762 z" />
    <path
       id="path25010"
       style="display:inline;fill:#ff0000;stroke:none;stroke-width:1.43474;stroke-miterlimit:2;stroke-dasharray:none;stop-color:#000000"
       d="m 169.82776,122.02215 a 57.58252,57.072835 0 0 0 0,-0.008 92.483059,91.53434 0 0 0 0,-0.008 57.58252,57.072835 0 0 1 0,0.008 92.483059,91.53434 0 0 1 0,0.008 z" />
    <path
       id="path25006"
       style="display:inline;fill:#ff0000;stroke:none;stroke-width:1.43474;stroke-miterlimit:2;stroke-dasharray:none;stop-color:#000000"
       d="m 171.74184,125.74033 a 34.596161,34.289939 0 0 0 0.008,0 92.483059,91.53434 0 0 0 -1.9169,-3.72296 57.58252,57.072835 0 0 1 0,0.008 92.483059,91.53434 0 0 1 1.91408,3.71818 z" />
    <path
       id="path24998"
       style="display:inline;fill:#ff0000;stroke:none;stroke-width:1.43474;stroke-miterlimit:2;stroke-dasharray:none;stop-color:#000000"
       d="m 147.9664,237.22179 a 92.483059,91.53434 0 0 0 0.008,0 92.483059,91.53434 0 0 0 1.72919,-1.43025 92.483059,91.53434 0 0 0 2.45614,-2.18351 92.483059,91.53434 0 0 0 2.37568,-2.26883 92.483059,91.53434 0 0 0 2.29231,-2.35148 92.483059,91.53434 0 0 0 2.20612,-2.43102 92.483059,91.53434 0 0 0 2.11721,-2.50694 92.483059,91.53434 0 0 0 2.02531,-2.58036 92.483059,91.53434 0 0 0 1.93114,-2.65074 92.483059,91.53434 0 0 0 1.8344,-2.71656 92.483059,91.53434 0 0 0 1.73491,-2.78021 92.483059,91.53434 0 0 0 1.63377,-2.83961 92.483059,91.53434 0 0 0 1.53022,-2.89551 92.483059,91.53434 0 0 0 1.42462,-2.94755 92.483059,91.53434 0 0 0 1.31793,-2.99578 92.483059,91.53434 0 0 0 1.20866,-3.0407 92.483059,91.53434 0 0 0 1.09821,-3.08133 92.483059,91.53434 0 0 0 0.98659,-3.11836 92.483059,91.53434 0 0 0 0.87324,-3.15154 92.483059,91.53434 0 0 0 0.75928,-3.17965 92.483059,91.53434 0 0 0 0.64437,-3.20492 92.483059,91.53434 0 0 0 0.52789,-3.22552 92.483059,91.53434 0 0 0 0.41134,-3.24219 92.483059,91.53434 0 0 0 0.29455,-3.25447 92.483059,91.53434 0 0 0 0.17675,-3.26309 92.483059,91.53434 0 0 0 0.0587,-3.26731 92.483059,91.53434 0 0 0 -0.50644,-9.56767 92.483059,91.53434 0 0 0 -1.5144,-9.46324 92.483059,91.53434 0 0 0 -1.10839,-4.0932 34.596161,34.289939 0 0 1 -0.008,0 92.483059,91.53434 0 0 1 1.10917,4.09696 92.483059,91.53434 0 0 1 1.5144,9.46285 92.483059,91.53434 0 0 1 0.50645,9.56805 92.483059,91.53434 0 0 1 -0.0587,3.26732 92.483059,91.53434 0 0 1 -0.17635,3.26269 92.483059,91.53434 0 0 1 -0.29448,3.25448 92.483059,91.53434 0 0 1 -0.41141,3.24219 92.483059,91.53434 0 0 1 -0.52829,3.22543 92.483059,91.53434 0 0 1 -0.6439,3.20501 92.483059,91.53434 0 0 1 -0.75927,3.18004 92.483059,91.53434 0 0 1 -0.87333,3.15115 92.483059,91.53434 0 0 1 -0.98659,3.11835 92.483059,91.53434 0 0 1 -1.09821,3.08133 92.483059,91.53434 0 0 1 -1.20905,3.04071 92.483059,91.53434 0 0 1 -1.31746,2.99616 92.483059,91.53434 0 0 1 -1.42509,2.94756 92.483059,91.53434 0 0 1 -1.53021,2.89551 92.483059,91.53434 0 0 1 -1.63378,2.83961 92.483059,91.53434 0 0 1 -1.7349,2.77973 92.483059,91.53434 0 0 1 -1.83401,2.71704 92.483059,91.53434 0 0 1 -1.93114,2.65034 92.483059,91.53434 0 0 1 -2.02531,2.58029 92.483059,91.53434 0 0 1 -2.11721,2.50741 92.483059,91.53434 0 0 1 -2.20613,2.43062 92.483059,91.53434 0 0 1 -2.29231,2.35188 92.483059,91.53434 0 0 1 -2.37606,2.26883 92.483059,91.53434 0 0 1 -2.45614,2.1835 92.483059,91.53434 0 0 1 -1.72763,1.42901 z" />
    <path
       id="path24994"
       style="display:inline;fill:#ff0000;stroke:none;stroke-width:1.43474;stroke-miterlimit:2;stroke-dasharray:none;stop-color:#000000"
       d="m 147.96523,237.22304 a 92.483059,91.53434 0 0 0 0.008,0 92.483059,91.53434 0 0 1 -0.008,0 z" />
    <path
       id="path24992"
       style="display:inline;fill:#ff0000;stroke:none;stroke-width:1.43474;stroke-miterlimit:2;stroke-dasharray:none;stop-color:#000000"
       d="m 147.96523,237.22304 a 92.483059,91.53434 0 0 1 -2.92455,-0.77579 92.483059,91.53434 0 0 1 -1.73162,-0.65814 92.483059,91.53434 0 0 1 4e-4,0 92.483059,91.53434 0 0 0 1.72441,0.65525 92.483059,91.53434 0 0 0 2.93018,0.77704 z" />
    <path
       id="path24982"
       style="display:inline;fill:#ff0000;stroke:none;stroke-width:1.43474;stroke-miterlimit:2;stroke-dasharray:none;stop-color:#000000"
       d="m 129.40103,249.0013 a 92.483059,91.53434 0 0 1 3.9e-4,0 92.483059,91.53434 0 0 0 0.30058,-0.14247 57.58252,57.072835 0 0 0 0.008,-0.008 92.483059,91.53434 0 0 1 -0.30622,0.14512 z" />
    <path
       id="path24978"
       style="display:inline;fill:#ff0000;stroke:none;stroke-width:1.83293;stroke-miterlimit:2;stroke-dasharray:none;stop-color:#000000"
       d="m 90.705683,287.13903 a 118.15012,116.9381 0 0 0 0.009,0 118.15012,116.9381 0 0 0 4.21214,-0.2233 118.15012,116.9381 0 0 0 4.20076,-0.372 118.15012,116.9381 0 0 0 4.184747,-0.5205 118.15012,116.9381 0 0 0 4.16359,-0.6675 118.15012,116.9381 0 0 0 4.13668,-0.8146 118.15012,116.9381 0 0 0 4.10467,-0.9597 118.15012,116.9381 0 0 0 4.06744,-1.1046 118.15012,116.9381 0 0 0 4.02508,-1.247 118.15012,116.9381 0 0 0 3.97753,-1.3891 118.15012,116.9381 0 0 0 3.92483,-1.5287 118.15012,116.9381 0 0 0 3.867,-1.6658 118.15012,116.9381 0 0 0 2.3569,-1.1158 118.15012,116.9381 0 0 0 -5e-4,0 118.15012,116.9381 0 0 1 -2.3652,1.1206 118.15012,116.9381 0 0 1 -3.86748,1.6658 118.15012,116.9381 0 0 1 -3.92483,1.5282 118.15012,116.9381 0 0 1 -3.97754,1.3891 118.15012,116.9381 0 0 1 -4.02508,1.2475 118.15012,116.9381 0 0 1 -4.06746,1.1043 118.15012,116.9381 0 0 1 -4.10464,0.96 118.15012,116.9381 0 0 1 -4.13671,0.8146 118.15012,116.9381 0 0 1 -4.16306,0.6675 118.15012,116.9381 0 0 1 -4.185257,0.5205 118.15012,116.9381 0 0 1 -4.20079,0.372 118.15012,116.9381 0 0 1 -4.21163,0.2233 z" />
    <path
       id="path24976"
       style="display:inline;fill:#ff0000;stroke:none;stroke-width:1.83293;stroke-miterlimit:2;stroke-dasharray:none;stop-color:#000000"
       d="m 86.488883,287.21333 a 118.15012,116.9381 0 0 0 0.009,6e-4 118.15012,116.9381 0 0 0 4.20802,-0.075 118.15012,116.9381 0 0 1 -4.2168,0.074 z" />
    <path
       id="path24946"
       style="display:inline;fill:#ff0000;stroke:none;stroke-width:1.43474;stroke-miterlimit:2;stroke-dasharray:none;stop-color:#000000"
       d="m 5.0280518,128.65157 a 57.58252,57.072835 0 0 0 -0.010489,0.008 92.483059,91.53434 0 0 0 -0.023091,0.0446 57.58252,57.072835 0 0 1 0.010489,-0.008 92.483059,91.53434 0 0 1 0.023091,-0.0446 z" />
    <path
       id="path24944"
       style="display:inline;fill:#ff0000;stroke:none;stroke-width:1.43474;stroke-miterlimit:2;stroke-dasharray:none;stop-color:#000000"
       d="m 5.1453561,128.42378 a 57.58252,57.072835 0 0 0 -0.010489,0.008 92.483059,91.53434 0 0 0 -0.1173042,0.22739 57.58252,57.072835 0 0 1 0.010489,-0.008 92.483059,91.53434 0 0 1 0.1173043,-0.22778 z" />
    <path
       id="path24932"
       style="display:inline;fill:#ff0000;stroke:none;stroke-width:1.43474;stroke-miterlimit:2;stroke-dasharray:none;stop-color:#000000"
       d="m 63.375418,78.812441 a 57.58252,57.072835 0 0 0 -7.83e-4,0 92.483059,91.53434 0 0 1 6.534722,-1.732793 92.483059,91.53434 0 0 1 9.561204,-1.499062 92.483059,91.53434 0 0 1 9.667182,-0.5012 92.483059,91.53434 0 0 0 -0.007,-3.92e-4 92.483059,91.53434 0 0 0 -9.667182,0.501592 92.483059,91.53434 0 0 0 -9.561212,1.498592 92.483059,91.53434 0 0 0 -6.527035,1.730836 z" />
    <path
       id="path24930"
       style="display:inline;fill:#ff0000;stroke:none;stroke-width:1.43474;stroke-miterlimit:2;stroke-dasharray:none;stop-color:#000000"
       d="m 63.369743,78.814085 a 57.58252,57.072835 0 0 0 -7.83e-4,0 92.483059,91.53434 0 0 1 0.0055,0 57.58252,57.072835 0 0 1 7.83e-4,0 92.483059,91.53434 0 0 0 -0.0055,0 z" />
    <path
       id="path24928"
       style="display:inline;fill:#ff0000;stroke:none;stroke-width:1.43474;stroke-miterlimit:2;stroke-dasharray:none;stop-color:#000000"
       d="m 62.904173,78.937526 a 57.58252,57.072835 0 0 0 -7.82e-4,0 92.483059,91.53434 0 0 1 0.465569,-0.123363 57.58252,57.072835 0 0 1 7.83e-4,0 92.483059,91.53434 0 0 0 -0.46557,0.123441 z" />
    <path
       id="path24924"
       style="display:inline;fill:#ff0000;stroke:none;stroke-width:1.43474;stroke-miterlimit:2;stroke-dasharray:none;stop-color:#000000"
       d="m 6.3511571,126.08146 a 92.483059,91.53434 0 0 1 -0.00626,0 92.483059,91.53434 0 0 0 -1.2102549,2.35132 57.58252,57.072835 0 0 1 0.010489,-0.008 92.483059,91.53434 0 0 1 1.205801,-2.34233 z" />
    <path
       id="path24896"
       style="display:inline;fill:#ff0000;stroke:none;stroke-width:1.43474;stroke-miterlimit:2;stroke-dasharray:none;stop-color:#000000"
       d="m 61.099272,122.20938 a 92.483059,91.53434 0 0 1 -0.0063,0 57.58252,57.072835 0 0 1 4.12712,2.01717 57.58252,57.072835 0 0 1 -0.0039,-0.008 57.58252,57.072835 0 0 0 -4.116623,-2.01247 z" />
    <path
       id="path24892"
       style="display:inline;fill:#ff0000;stroke:none;stroke-width:1.43474;stroke-miterlimit:2;stroke-dasharray:none;stop-color:#000000"
       d="m 61.322969,122.12242 a 92.483059,91.53434 0 0 1 -0.223697,0.087 57.58252,57.072835 0 0 1 4.116623,2.01247 57.58252,57.072835 0 0 1 -0.129045,-0.25971 57.58252,57.072835 0 0 0 -3.763881,-1.83972 z" />
    <path
       id="path24872"
       style="display:inline;fill:#00ffff;stroke:none;stroke-width:1.43474;stroke-miterlimit:2;stroke-dasharray:none;stop-color:#000000"
       d="m 73.681707,116.2046 a 92.483059,91.53434 0 0 1 -2.030579,1.14448 92.483059,91.53434 0 0 1 -2.925358,1.51471 92.483059,91.53434 0 0 1 -2.978358,1.41022 92.483059,91.53434 0 0 1 -1.993382,0.85861 57.58252,57.072835 0 0 0 0.03601,0.0728 57.58252,57.072835 0 0 1 1.700121,-0.3351 57.58252,57.072835 0 0 1 7.516051,-0.48821 57.58252,57.072835 0 0 1 7.516044,0.48821 57.58252,57.072835 0 0 1 4.935334,0.97297 92.483059,91.53434 0 0 1 0.07889,-0.29166 57.58252,57.072835 0 0 0 -1.010448,-0.6691 57.58252,57.072835 0 0 0 -6.755178,-3.30191 57.58252,57.072835 0 0 0 -4.089125,-1.37578 z" />
    <path
       id="path24868"
       style="display:inline;fill:#00ffff;stroke:none;stroke-width:1.43474;stroke-miterlimit:2;stroke-dasharray:none;stop-color:#000000"
       d="m 110.22603,77.576621 a 92.483059,91.53434 0 0 1 -0.19659,0.406957 92.483059,91.53434 0 0 1 -1.53022,2.895503 92.483059,91.53434 0 0 1 -1.63379,2.839615 92.483059,91.53434 0 0 1 -1.7349,2.779811 92.483059,91.53434 0 0 1 -1.83443,2.716957 92.483059,91.53434 0 0 1 -1.93068,2.650343 92.483059,91.53434 0 0 1 -2.025338,2.580756 92.483059,91.53434 0 0 1 -2.117167,2.50702 92.483059,91.53434 0 0 1 -2.206144,2.431015 92.483059,91.53434 0 0 1 -2.292716,2.351412 92.483059,91.53434 0 0 1 -2.375642,2.26882 92.483059,91.53434 0 0 1 -2.456141,2.18351 92.483059,91.53434 0 0 1 -2.533383,2.09529 92.483059,91.53434 0 0 1 -2.607018,2.0048 92.483059,91.53434 0 0 1 -2.677811,1.91119 92.483059,91.53434 0 0 1 -2.745362,1.81545 92.483059,91.53434 0 0 1 -2.808445,1.71714 92.483059,91.53434 0 0 1 -0.838546,0.47239 57.58252,57.072835 0 0 1 4.089124,1.37578 57.58252,57.072835 0 0 1 6.755179,3.30191 57.58252,57.072835 0 0 1 1.010447,0.6691 92.483059,91.53434 0 0 1 0.120537,-0.44546 92.483059,91.53434 0 0 1 3.469423,-8.94467 92.483059,91.53434 0 0 1 4.394494,-8.53661 92.483059,91.53434 0 0 1 5.272688,-8.035494 92.483059,91.53434 0 0 1 6.091801,-7.446072 92.483059,91.53434 0 0 1 6.84496,-6.774622 92.483059,91.53434 0 0 1 3.18062,-2.549211 92.483059,91.53434 0 0 0 -4.68495,-1.24263 z" />
    <path
       id="path13243"
       style="display:inline;fill:#ffffff;fill-opacity:1;stroke:none;stroke-width:0.354468;stroke-miterlimit:2;stroke-dasharray:none"
       d="m 134.45379,124.62936 a 12.822125,13.209564 0 0 1 -12.82215,13.20953 12.822125,13.209564 0 0 1 -12.82208,-13.20953 12.822125,13.209564 0 0 1 12.82208,-13.20961 12.822125,13.209564 0 0 1 12.82215,13.20961 z" />
    <path
       id="path4567-9-3-4-4-4"
       style="display:inline;fill:#000000;fill-opacity:1;stroke:none;stroke-width:0.313104;stroke-miterlimit:2;stroke-dasharray:none"
       d="m 132.95755,124.62936 a 11.325853,11.66808 0 0 1 -11.3259,11.66804 11.325853,11.66808 0 0 1 -11.32581,-11.66804 11.325853,11.66808 0 0 1 11.32581,-11.66812 11.325853,11.66808 0 0 1 11.3259,11.66812 z" />
    <path
       id="path25082-7"
       style="display:inline;fill:#b0b0b0;fill-opacity:1;stroke:none;stroke-width:1.43474;stroke-miterlimit:2;stroke-dasharray:none;stop-color:#000000"
       d="m 190.85501,77.379366 a 92.483059,91.53434 0 0 0 -50.97772,15.208771 92.483044,91.534324 0 0 1 1.38134,0.93978 92.483044,91.534324 0 0 1 7.52294,6.029436 92.483044,91.534324 0 0 1 6.84499,6.775087 92.483044,91.534324 0 0 1 2.4905,3.04376 34.596161,34.289939 0 0 1 0.10192,-1.15316 34.596161,34.289939 0 0 1 1.56058,-5.77339 34.596161,34.289939 0 0 1 2.54875,-5.417321 34.596161,34.289939 0 0 1 3.45893,-4.895922 34.596161,34.289939 0 0 1 4.26423,-4.227055 34.596161,34.289939 0 0 1 0.56993,-0.394902 34.596161,34.289939 0 0 1 0.0906,-0.06262 v 0 a 34.596161,34.289939 0 0 1 4.27802,-2.969082 34.596161,34.289939 0 0 1 5.46561,-2.526433 34.596161,34.289939 0 0 1 5.82482,-1.546497 34.596161,34.289939 0 0 1 6.00768,-0.521082 34.596161,34.289939 0 0 1 0.018,0 34.596161,34.289939 0 0 0 -1.17915,-2.505768 92.483059,91.53434 0 0 0 -0.27224,-0.0078 z m -21.19711,6.10959 a 57.58252,57.072835 0 0 1 0.26371,0.854694 57.58252,57.072835 0 0 1 0.21033,0.738142 57.58252,57.072835 0 0 0 -0.47404,-1.592836 z" />
    <path
       id="path25332-8"
       style="display:inline;fill:#0486b5;fill-opacity:1;stroke:none;stroke-width:1.43474;stroke-miterlimit:2;stroke-dasharray:none;stop-color:#000000"
       d="m 95.901485,168.88248 a 57.58252,57.072835 0 0 1 0.0078,0.0595 92.483028,91.534308 0 0 1 0.03131,0.0164 v 0 a 92.483028,91.534308 0 0 1 0.02818,0.0149 57.58252,57.072835 0 0 1 0.370949,5.61152 57.58252,57.072835 0 0 1 -0.492668,7.44936 57.58252,57.072835 0 0 1 0,0.0149 57.58252,57.072835 0 0 1 -0.01174,0.1744 57.58252,57.072835 0 0 1 -0.25197,1.2557 92.482997,91.534277 0 0 1 3.443513,2.75985 92.482997,91.534277 0 0 1 6.845381,6.77502 92.482997,91.534277 0 0 1 1.59174,1.94554 92.482997,91.534277 0 0 1 4.50008,5.50014 92.482997,91.534277 0 0 1 5.27219,8.03541 92.482997,91.534277 0 0 1 1.67632,3.25573 92.482997,91.534277 0 0 1 2.71868,5.28158 92.482997,91.534277 0 0 1 3.46903,8.94404 92.482997,91.534277 0 0 1 0.40046,1.47895 92.482997,91.534277 0 0 0 1.82383,1.17218 92.482997,91.534277 0 0 0 8.62504,4.34963 92.482997,91.534277 0 0 0 3.70042,1.4056 92.483044,91.534324 0 0 0 0.33737,0.12822 92.483004,91.534285 0 0 0 0.15569,0.0618 92.483004,91.534285 0 0 1 -0.15773,-0.0603 92.483044,91.534324 0 0 1 -0.33572,-0.12775 92.483004,91.534285 0 0 1 -3.70645,-1.40811 92.483004,91.534285 0 0 1 -8.62543,-4.34963 92.483004,91.534285 0 0 1 -1.81538,-1.16702 92.483004,91.534285 0 0 1 2.10374,7.771 92.483004,91.534285 0 0 1 0.91176,5.69848 57.58252,57.072835 0 0 0 0.0196,-0.009 57.58252,57.072835 0 0 0 0.0164,-0.008 57.58252,57.072835 0 0 1 -0.0164,0.009 57.58252,57.072835 0 0 1 -0.0196,0.009 92.482997,91.534277 0 0 1 0.60273,3.76475 92.482997,91.534277 0 0 1 0.22613,4.27027 92.482997,91.534277 0 0 0 0.30622,-0.14513 92.483004,91.534285 0 0 0 0.82033,-0.38832 92.483004,91.534285 0 0 0 2.92516,-1.51417 92.483004,91.534285 0 0 0 2.86912,-1.6171 92.483004,91.534285 0 0 0 2.80885,-1.71706 92.483004,91.534285 0 0 0 2.74498,-1.81553 92.483004,91.534285 0 0 0 1.9796,-1.41328 92.483059,91.53434 0 0 0 -0.5776,-4.61264 92.483004,91.534285 0 0 1 -0.13636,-0.0517 92.483004,91.534285 0 0 0 0.13597,0.0493 92.483059,91.53434 0 0 0 -47.314428,-66.85512 z m 43.481415,66.0207 a 57.58252,57.072835 0 0 1 -0.0219,0.0149 57.58252,57.072835 0 0 0 0.0227,-0.0164 z m -4.07575,2.70044 a 57.58252,57.072835 0 0 1 -0.0211,0.0141 57.58252,57.072835 0 0 1 -0.0149,0.008 57.58252,57.072835 0 0 0 0.0156,-0.008 57.58252,57.072835 0 0 0 0.0211,-0.0125 z" />
    <path
       id="path4093"
       style="display:inline;fill:#0abbf7;fill-opacity:1;stroke:none;stroke-width:0.554101;stroke-miterlimit:2;stop-color:#000000"
       d="m 144.85235,152.10889 a 23.057361,22.867525 0 0 1 -1.36075,1.53546 23.057361,22.867525 0 0 1 -1.49381,1.40897 23.057361,22.867525 0 0 1 -1.61437,1.27097 23.057361,22.867525 0 0 1 -1.72277,1.12255 23.057361,22.867525 0 0 1 -1.81663,0.96592 23.057361,22.867525 0 0 1 -1.8967,0.80084 23.057361,22.867525 0 0 1 -1.96105,0.62981 23.057361,22.867525 0 0 1 -2.00996,0.45361 23.057361,22.867525 0 0 1 -2.04229,0.27373 23.057361,22.867525 0 0 1 -2.05936,0.0914 23.057361,22.867525 0 0 1 -2.0949,-0.0967 23.057361,22.867525 0 0 1 -2.07712,-0.28563 23.057361,22.867525 0 0 1 -2.04274,-0.47114 23.057361,22.867525 0 0 1 -1.99055,-0.65361 23.057361,22.867525 0 0 1 -1.92301,-0.83011 23.057361,22.867525 0 0 1 -1.83886,-0.9999 23.057361,22.867525 0 0 1 -1.73935,-1.16161 57.58252,57.072835 16.929259 0 1 1.79477,2.13317 57.58252,57.072835 16.929259 0 1 1.68879,2.21662 57.58252,57.072835 16.929259 0 1 1.4202,2.06194 57.58252,57.072835 16.929259 0 1 1.3292,2.12073 57.58252,57.072835 16.929259 0 1 1.23454,2.17584 57.58252,57.072835 16.929259 0 1 0.93966,2.05411 57.58252,57.072835 16.929259 0 1 1.14313,2.35619 57.58252,57.072835 16.929259 0 1 1.03391,2.40557 57.58252,57.072835 16.929259 0 1 0.83651,2.35329 57.58252,57.072835 16.929259 0 1 0.73251,2.38694 57.58252,57.072835 16.929259 0 1 0.62699,2.41606 57.58252,57.072835 16.929259 0 1 0.52022,2.44049 57.58252,57.072835 16.929259 0 1 0.41299,2.46021 57.58252,57.072835 16.929259 0 1 0.30418,2.47556 57.58252,57.072835 16.929259 0 1 0.19537,2.48486 57.58252,57.072835 16.929259 0 1 0.0858,2.49082 57.58252,57.072835 16.929259 0 1 -0.0235,2.49129 57.58252,57.072835 16.929259 0 1 -0.13307,2.48815 57.58252,57.072835 16.929259 0 1 -0.24234,2.47963 57.58252,57.072835 16.929259 0 1 -0.35107,2.46584 57.58252,57.072835 16.929259 0 1 -0.45916,2.44753 57.58252,57.072835 16.929259 0 1 -0.56625,2.4246 57.58252,57.072835 16.929259 0 1 -0.67231,2.3972 57.58252,57.072835 16.929259 0 1 -0.0211,0.0697 57.58252,57.072835 16.929259 0 1 -0.0211,0.0697 57.58252,57.072835 16.929259 0 1 -0.0211,0.0704 57.58252,57.072835 16.929259 0 1 -0.0219,0.0697 57.58252,57.072835 16.929259 0 1 -0.0211,0.0697 57.58252,57.072835 16.929259 0 1 -0.0219,0.0697 57.58252,57.072835 16.929259 0 1 -0.0227,0.0704 57.58252,57.072835 16.929259 0 1 -0.0219,0.0697 57.58252,57.072835 16.929259 0 1 -0.0219,0.0697 57.58252,57.072835 16.929259 0 1 -0.0219,0.0697 57.58252,57.072835 16.929259 0 1 -0.0227,0.0697 57.58252,57.072835 16.929259 0 1 -0.0227,0.0697 57.58252,57.072835 16.929259 0 1 -0.0219,0.0697 57.58252,57.072835 16.929259 0 1 -0.0227,0.0697 57.58252,57.072835 16.929259 0 1 -0.0227,0.0697 57.58252,57.072835 16.929259 0 1 -0.0227,0.0697 57.58252,57.072835 16.929259 0 1 -0.0227,0.0697 57.58252,57.072835 16.929259 0 1 -0.0227,0.0697 57.58252,57.072835 16.929259 0 1 -0.0227,0.0697 57.58252,57.072835 16.929259 0 1 -0.0227,0.0697 57.58252,57.072835 16.929259 0 1 -0.0235,0.0697 57.58252,57.072835 16.929259 0 1 -0.0227,0.0689 57.58252,57.072835 16.929259 0 1 -0.0235,0.0697 57.58252,57.072835 16.929259 0 1 -0.0235,0.0689 57.58252,57.072835 16.929259 0 1 -0.0235,0.0697 57.58252,57.072835 16.929259 0 1 -0.0235,0.0689 57.58252,57.072835 16.929259 0 1 -0.0235,0.0697 57.58252,57.072835 16.929259 0 1 -0.0235,0.0689 57.58252,57.072835 16.929259 0 1 -0.0243,0.0689 57.58252,57.072835 16.929259 0 1 -0.0235,0.0689 57.58252,57.072835 16.929259 0 1 -0.0243,0.0689 57.58252,57.072835 16.929259 0 1 -0.0243,0.0689 57.58252,57.072835 16.929259 0 1 -0.0243,0.0689 57.58252,57.072835 16.929259 0 1 -0.0243,0.0689 57.58252,57.072835 16.929259 0 1 -0.0243,0.0689 57.58252,57.072835 16.929259 0 1 -0.0251,0.0689 57.58252,57.072835 16.929259 0 1 -0.0243,0.0689 57.58252,57.072835 16.929259 0 1 -0.025,0.0689 57.58252,57.072835 16.929259 0 1 -0.0251,0.0689 57.58252,57.072835 16.929259 0 1 -0.025,0.0689 57.58252,57.072835 16.929259 0 1 -0.0251,0.0689 57.58252,57.072835 16.929259 0 1 -0.025,0.0689 57.58252,57.072835 16.929259 0 1 -0.025,0.0689 57.58252,57.072835 16.929259 0 1 -0.0258,0.0689 57.58252,57.072835 16.929259 0 1 -0.025,0.0689 57.58252,57.072835 16.929259 0 1 -0.0258,0.0689 57.58252,57.072835 16.929259 0 1 -0.0258,0.0689 57.58252,57.072835 16.929259 0 1 -0.0258,0.0689 57.58252,57.072835 16.929259 0 1 -0.0255,0.0681 57.58252,57.072835 16.929259 0 1 -0.0259,0.0689 57.58252,57.072835 16.929259 0 1 -0.0259,0.0681 57.58252,57.072835 16.929259 0 1 -0.0259,0.0681 57.58252,57.072835 16.929259 0 1 -0.0259,0.0689 57.58252,57.072835 16.929259 0 1 -0.0263,0.0681 57.58252,57.072835 16.929259 0 1 -0.0263,0.0681 57.58252,57.072835 16.929259 0 1 -0.0263,0.0681 57.58252,57.072835 16.929259 0 1 -0.0263,0.0681 57.58252,57.072835 16.929259 0 1 -0.0263,0.0681 57.58252,57.072835 16.929259 0 1 -0.0267,0.0681 57.58252,57.072835 16.929259 0 1 -0.0267,0.0681 57.58252,57.072835 16.929259 0 1 -0.0267,0.0681 57.58252,57.072835 16.929259 0 1 -0.0271,0.0681 57.58252,57.072835 16.929259 0 1 -0.0267,0.0681 57.58252,57.072835 16.929259 0 1 -0.0271,0.0681 57.58252,57.072835 16.929259 0 1 -0.0271,0.0681 57.58252,57.072835 16.929259 0 1 -0.0271,0.0681 57.58252,57.072835 16.929259 0 1 -0.0275,0.0681 57.58252,57.072835 16.929259 0 1 -0.0271,0.0681 57.58252,57.072835 16.929259 0 1 -0.0275,0.0673 57.58252,57.072835 16.929259 0 1 -0.0275,0.0681 57.58252,57.072835 16.929259 0 1 -0.0275,0.0681 57.58252,57.072835 16.929259 0 1 -0.028,0.0681 57.58252,57.072835 16.929259 0 1 -0.0279,0.0673 57.58252,57.072835 16.929259 0 1 -0.0279,0.0681 57.58252,57.072835 16.929259 0 1 -0.0279,0.0673 57.58252,57.072835 16.929259 0 1 -0.0279,0.0673 57.58252,57.072835 16.929259 0 1 -0.0283,0.0673 57.58252,57.072835 16.929259 0 1 -0.0283,0.0681 57.58252,57.072835 16.929259 0 1 -0.0283,0.0673 57.58252,57.072835 16.929259 0 1 -0.0283,0.0673 57.58252,57.072835 16.929259 0 1 -0.0283,0.0673 57.58252,57.072835 16.929259 0 1 -0.0287,0.0681 57.58252,57.072835 16.929259 0 1 -0.0287,0.0673 57.58252,57.072835 16.929259 0 1 -0.0287,0.0673 57.58252,57.072835 16.929259 0 1 -0.0287,0.0673 57.58252,57.072835 16.929259 0 1 -0.0291,0.0673 57.58252,57.072835 16.929259 0 1 -0.0291,0.0673 57.58252,57.072835 16.929259 0 1 -0.0291,0.0673 57.58252,57.072835 16.929259 0 1 -0.0291,0.0673 57.58252,57.072835 16.929259 0 1 -0.0291,0.0673 57.58252,57.072835 16.929259 0 1 -0.0295,0.0673 57.58252,57.072835 16.929259 0 1 -0.0295,0.0673 57.58252,57.072835 16.929259 0 1 -0.0295,0.0673 57.58252,57.072835 16.929259 0 1 -0.0295,0.0673 57.58252,57.072835 16.929259 0 1 -0.0299,0.0665 57.58252,57.072835 16.929259 0 1 -0.0295,0.0673 57.58252,57.072835 16.929259 0 1 -0.0299,0.0665 57.58252,57.072835 16.929259 0 1 -0.0299,0.0665 57.58252,57.072835 16.929259 0 1 -0.0303,0.0665 57.58252,57.072835 16.929259 0 1 -0.03,0.0673 57.58252,57.072835 16.929259 0 1 -0.0304,0.0665 57.58252,57.072835 16.929259 0 1 -0.0303,0.0665 57.58252,57.072835 16.929259 0 1 -1.08246,2.24291 57.58252,57.072835 16.929259 0 1 -1.18033,2.19369 57.58252,57.072835 16.929259 0 1 -1.27539,2.13982 57.58252,57.072835 16.929259 0 1 -1.33689,1.93436 57.58252,57.072835 16.929259 0 1 -1.41574,1.8776 57.58252,57.072835 16.929259 0 1 -1.62166,2.24629 57.58252,57.072835 16.929259 0 1 -2.22557,2.35453 92.483051,91.53434 16.929259 0 0 0.28558,0.22098 57.58252,57.072835 16.929259 0 0 1.80165,-0.53682 57.58252,57.072835 16.929259 0 0 1.41819,-0.63349 57.58252,57.072835 16.929259 0 0 2.74857,-1.14306 57.58252,57.072835 16.929259 0 0 2.68429,-1.2838 57.58252,57.072835 16.929259 0 0 2.18593,-1.21492 57.58252,57.072835 16.929259 0 0 2.12968,-1.30846 57.58252,57.072835 16.929259 0 0 2.06985,-1.40004 57.58252,57.072835 16.929259 0 0 2.0059,-1.48803 57.58252,57.072835 16.929259 0 0 1.93804,-1.57444 57.58252,57.072835 16.929259 0 0 1.86671,-1.65687 57.58252,57.072835 16.929259 0 0 1.79158,-1.73655 57.58252,57.072835 16.929259 0 0 1.71346,-1.81302 57.58252,57.072835 16.929259 0 0 1.63174,-1.88567 57.58252,57.072835 16.929259 0 0 1.54681,-1.9551 57.58252,57.072835 16.929259 0 0 1.45906,-2.02069 57.58252,57.072835 16.929259 0 0 1.36881,-2.08284 57.58252,57.072835 16.929259 0 0 1.27582,-2.13983 57.58252,57.072835 16.929259 0 0 1.17993,-2.19368 57.58252,57.072835 16.929259 0 0 1.0824,-2.24331 57.58252,57.072835 16.929259 0 0 0.0305,-0.0665 57.58252,57.072835 16.929259 0 0 0.0305,-0.0665 57.58252,57.072835 16.929259 0 0 0.0298,-0.0665 57.58252,57.072835 16.929259 0 0 0.0305,-0.0673 57.58252,57.072835 16.929259 0 0 0.0297,-0.0665 57.58252,57.072835 16.929259 0 0 0.0297,-0.0665 57.58252,57.072835 16.929259 0 0 0.0297,-0.0673 57.58252,57.072835 16.929259 0 0 0.0297,-0.0665 57.58252,57.072835 16.929259 0 0 0.0298,-0.0673 57.58252,57.072835 16.929259 0 0 0.0297,-0.0665 57.58252,57.072835 16.929259 0 0 0.0298,-0.0673 57.58252,57.072835 16.929259 0 0 0.029,-0.0673 57.58252,57.072835 16.929259 0 0 0.0298,-0.0673 57.58252,57.072835 16.929259 0 0 0.029,-0.0673 57.58252,57.072835 16.929259 0 0 0.029,-0.0673 57.58252,57.072835 16.929259 0 0 0.029,-0.0673 57.58252,57.072835 16.929259 0 0 0.029,-0.0673 57.58252,57.072835 16.929259 0 0 0.029,-0.0673 57.58252,57.072835 16.929259 0 0 0.029,-0.0673 57.58252,57.072835 16.929259 0 0 0.029,-0.0673 57.58252,57.072835 16.929259 0 0 0.0282,-0.0673 57.58252,57.072835 16.929259 0 0 0.029,-0.0673 57.58252,57.072835 16.929259 0 0 0.0282,-0.0673 57.58252,57.072835 16.929259 0 0 0.0282,-0.0673 57.58252,57.072835 16.929259 0 0 0.0282,-0.0673 57.58252,57.072835 16.929259 0 0 0.0282,-0.0681 57.58252,57.072835 16.929259 0 0 0.0282,-0.0673 57.58252,57.072835 16.929259 0 0 0.0282,-0.0681 57.58252,57.072835 16.929259 0 0 0.0282,-0.0673 57.58252,57.072835 16.929259 0 0 0.0282,-0.0673 57.58252,57.072835 16.929259 0 0 0.0274,-0.0681 57.58252,57.072835 16.929259 0 0 0.0274,-0.0681 57.58252,57.072835 16.929259 0 0 0.0282,-0.0681 57.58252,57.072835 16.929259 0 0 0.0274,-0.0673 57.58252,57.072835 16.929259 0 0 0.0274,-0.0681 57.58252,57.072835 16.929259 0 0 0.0274,-0.0681 57.58252,57.072835 16.929259 0 0 0.0274,-0.0681 57.58252,57.072835 16.929259 0 0 0.0274,-0.0681 57.58252,57.072835 16.929259 0 0 0.0266,-0.0681 57.58252,57.072835 16.929259 0 0 0.0274,-0.0681 57.58252,57.072835 16.929259 0 0 0.0266,-0.0689 57.58252,57.072835 16.929259 0 0 0.0266,-0.0681 57.58252,57.072835 16.929259 0 0 0.0266,-0.0681 57.58252,57.072835 16.929259 0 0 0.0266,-0.0681 57.58252,57.072835 16.929259 0 0 0.0266,-0.0681 57.58252,57.072835 16.929259 0 0 0.0266,-0.0681 57.58252,57.072835 16.929259 0 0 0.0266,-0.0681 57.58252,57.072835 16.929259 0 0 0.0258,-0.0681 57.58252,57.072835 16.929259 0 0 0.0266,-0.0681 57.58252,57.072835 16.929259 0 0 0.0258,-0.0681 57.58252,57.072835 16.929259 0 0 0.0266,-0.0681 57.58252,57.072835 16.929259 0 0 0.0258,-0.0689 57.58252,57.072835 16.929259 0 0 0.0258,-0.0681 57.58252,57.072835 16.929259 0 0 0.0258,-0.0689 57.58252,57.072835 16.929259 0 0 0.0258,-0.0689 57.58252,57.072835 16.929259 0 0 0.0258,-0.0689 57.58252,57.072835 16.929259 0 0 0.0258,-0.0689 57.58252,57.072835 16.929259 0 0 0.025,-0.0689 57.58252,57.072835 16.929259 0 0 0.0258,-0.0689 57.58252,57.072835 16.929259 0 0 0.0251,-0.0689 57.58252,57.072835 16.929259 0 0 0.025,-0.0689 57.58252,57.072835 16.929259 0 0 0.025,-0.0689 57.58252,57.072835 16.929259 0 0 0.025,-0.0689 57.58252,57.072835 16.929259 0 0 0.0243,-0.0689 57.58252,57.072835 16.929259 0 0 0.025,-0.0689 57.58252,57.072835 16.929259 0 0 0.0243,-0.0689 57.58252,57.072835 16.929259 0 0 0.025,-0.0689 57.58252,57.072835 16.929259 0 0 0.0243,-0.0689 57.58252,57.072835 16.929259 0 0 0.025,-0.0689 57.58252,57.072835 16.929259 0 0 0.0243,-0.0689 57.58252,57.072835 16.929259 0 0 0.0243,-0.0689 57.58252,57.072835 16.929259 0 0 0.0243,-0.0689 57.58252,57.072835 16.929259 0 0 0.0243,-0.0689 57.58252,57.072835 16.929259 0 0 0.0235,-0.0689 57.58252,57.072835 16.929259 0 0 0.0235,-0.0689 57.58252,57.072835 16.929259 0 0 0.0235,-0.0689 57.58252,57.072835 16.929259 0 0 0.0235,-0.0697 57.58252,57.072835 16.929259 0 0 0.0235,-0.0689 57.58252,57.072835 16.929259 0 0 0.0235,-0.0697 57.58252,57.072835 16.929259 0 0 0.0235,-0.0689 57.58252,57.072835 16.929259 0 0 0.0227,-0.0697 57.58252,57.072835 16.929259 0 0 0.0235,-0.0697 57.58252,57.072835 16.929259 0 0 0.0227,-0.0689 57.58252,57.072835 16.929259 0 0 0.0235,-0.0697 57.58252,57.072835 16.929259 0 0 0.0227,-0.0697 57.58252,57.072835 16.929259 0 0 0.0227,-0.0697 57.58252,57.072835 16.929259 0 0 0.0227,-0.0697 57.58252,57.072835 16.929259 0 0 0.0227,-0.0697 57.58252,57.072835 16.929259 0 0 0.0227,-0.0697 57.58252,57.072835 16.929259 0 0 0.0219,-0.0697 57.58252,57.072835 16.929259 0 0 0.0219,-0.0697 57.58252,57.072835 16.929259 0 0 0.0227,-0.0697 57.58252,57.072835 16.929259 0 0 0.0219,-0.0704 57.58252,57.072835 16.929259 0 0 0.0219,-0.0697 57.58252,57.072835 16.929259 0 0 0.0219,-0.0697 57.58252,57.072835 16.929259 0 0 0.0219,-0.0704 57.58252,57.072835 16.929259 0 0 0.0219,-0.0697 57.58252,57.072835 16.929259 0 0 0.0211,-0.0697 57.58252,57.072835 16.929259 0 0 0.0219,-0.0697 57.58252,57.072835 16.929259 0 0 0.0211,-0.0704 57.58252,57.072835 16.929259 0 0 0.0211,-0.0705 57.58252,57.072835 16.929259 0 0 0.0211,-0.0697 57.58252,57.072835 16.929259 0 0 0.0211,-0.0704 57.58252,57.072835 16.929259 0 0 0.0211,-0.0697 57.58252,57.072835 16.929259 0 0 0.0211,-0.0704 57.58252,57.072835 16.929259 0 0 0.0211,-0.0697 57.58252,57.072835 16.929259 0 0 0.0211,-0.0704 57.58252,57.072835 16.929259 0 0 0.0204,-0.0697 57.58252,57.072835 16.929259 0 0 0.0211,-0.0704 57.58252,57.072835 16.929259 0 0 0.0204,-0.0705 57.58252,57.072835 16.929259 0 0 0.0204,-0.0704 57.58252,57.072835 16.929259 0 0 0.0204,-0.0704 57.58252,57.072835 16.929259 0 0 0.0204,-0.0697 57.58252,57.072835 16.929259 0 0 0.0204,-0.0704 57.58252,57.072835 16.929259 0 0 0.0196,-0.0704 57.58252,57.072835 16.929259 0 0 0.0204,-0.0704 57.58252,57.072835 16.929259 0 0 0.0204,-0.0704 57.58252,57.072835 16.929259 0 0 0.0196,-0.0704 57.58252,57.072835 16.929259 0 0 0.0196,-0.0705 57.58252,57.072835 16.929259 0 0 0.0196,-0.0712 57.58252,57.072835 16.929259 0 0 0.0196,-0.0704 57.58252,57.072835 16.929259 0 0 0.0196,-0.0712 57.58252,57.072835 16.929259 0 0 0.0196,-0.0704 57.58252,57.072835 16.929259 0 0 0.0196,-0.0704 57.58252,57.072835 16.929259 0 0 0.0188,-0.0704 57.58252,57.072835 16.929259 0 0 0.0196,-0.0705 57.58252,57.072835 16.929259 0 0 0.0188,-0.0704 57.58252,57.072835 16.929259 0 0 0.0188,-0.0712 57.58252,57.072835 16.929259 0 0 0.0188,-0.0705 57.58252,57.072835 16.929259 0 0 0.0188,-0.0704 57.58252,57.072835 16.929259 0 0 0.0188,-0.0712 57.58252,57.072835 16.929259 0 0 0.0188,-0.0705 57.58252,57.072835 16.929259 0 0 0.018,-0.0712 57.58252,57.072835 16.929259 0 0 0.0188,-0.0704 57.58252,57.072835 16.929259 0 0 0.018,-0.0704 57.58252,57.072835 16.929259 0 0 0.0188,-0.0712 57.58252,57.072835 16.929259 0 0 0.018,-0.0712 57.58252,57.072835 16.929259 0 0 0.018,-0.0704 57.58252,57.072835 16.929259 0 0 0.018,-0.0712 57.58252,57.072835 16.929259 0 0 0.018,-0.0712 57.58252,57.072835 16.929259 0 0 0.018,-0.0712 57.58252,57.072835 16.929259 0 0 0.018,-0.0712 57.58252,57.072835 16.929259 0 0 0.0172,-0.0712 57.58252,57.072835 16.929259 0 0 0.018,-0.0712 57.58252,57.072835 16.929259 0 0 0.0172,-0.0712 57.58252,57.072835 16.929259 0 0 0.0172,-0.0712 57.58252,57.072835 16.929259 0 0 0.0172,-0.0712 57.58252,57.072835 16.929259 0 0 0.0172,-0.0712 57.58252,57.072835 16.929259 0 0 0.0172,-0.0712 57.58252,57.072835 16.929259 0 0 0.0172,-0.0712 57.58252,57.072835 16.929259 0 0 0.0172,-0.0712 57.58252,57.072835 16.929259 0 0 0.0164,-0.0712 57.58252,57.072835 16.929259 0 0 0.0172,-0.0712 57.58252,57.072835 16.929259 0 0 0.0164,-0.0712 57.58252,57.072835 16.929259 0 0 0.0164,-0.0712 57.58252,57.072835 16.929259 0 0 0.0164,-0.072 57.58252,57.072835 16.929259 0 0 0.0164,-0.0712 57.58252,57.072835 16.929259 0 0 0.0164,-0.0712 57.58252,57.072835 16.929259 0 0 0.0164,-0.0712 57.58252,57.072835 16.929259 0 0 0.0157,-0.0712 57.58252,57.072835 16.929259 0 0 0.0164,-0.0712 57.58252,57.072835 16.929259 0 0 0.0156,-0.072 57.58252,57.072835 16.929259 0 0 0.0157,-0.0712 57.58252,57.072835 16.929259 0 0 0.0157,-0.0712 57.58252,57.072835 16.929259 0 0 0.0157,-0.0712 57.58252,57.072835 16.929259 0 0 0.0156,-0.0712 57.58252,57.072835 16.929259 0 0 0.0157,-0.072 57.58252,57.072835 16.929259 0 0 0.0156,-0.072 57.58252,57.072835 16.929259 0 0 0.0149,-0.0712 57.58252,57.072835 16.929259 0 0 0.0157,-0.072 57.58252,57.072835 16.929259 0 0 0.0149,-0.0712 57.58252,57.072835 16.929259 0 0 0.0149,-0.0712 57.58252,57.072835 16.929259 0 0 0.0149,-0.072 57.58252,57.072835 16.929259 0 0 0.0149,-0.0712 57.58252,57.072835 16.929259 0 0 0.0149,-0.072 57.58252,57.072835 16.929259 0 0 0.0149,-0.0712 57.58252,57.072835 16.929259 0 0 0.0149,-0.072 57.58252,57.072835 16.929259 0 0 0.0149,-0.0712 57.58252,57.072835 16.929259 0 0 0.0141,-0.072 57.58252,57.072835 16.929259 0 0 0.0141,-0.072 57.58252,57.072835 16.929259 0 0 0.0141,-0.072 57.58252,57.072835 16.929259 0 0 0.0141,-0.072 57.58252,57.072835 16.929259 0 0 0.0133,-0.072 57.58252,57.072835 16.929259 0 0 0.0141,-0.072 57.58252,57.072835 16.929259 0 0 0.0141,-0.072 57.58252,57.072835 16.929259 0 0 0.0133,-0.072 57.58252,57.072835 16.929259 0 0 0.0141,-0.072 57.58252,57.072835 16.929259 0 0 0.0133,-0.072 57.58252,57.072835 16.929259 0 0 0.0133,-0.072 57.58252,57.072835 16.929259 0 0 0.0133,-0.072 57.58252,57.072835 16.929259 0 0 0.0133,-0.072 57.58252,57.072835 16.929259 0 0 0.0133,-0.072 57.58252,57.072835 16.929259 0 0 0.0133,-0.072 57.58252,57.072835 16.929259 0 0 0.0125,-0.072 57.58252,57.072835 16.929259 0 0 0.0125,-0.072 57.58252,57.072835 16.929259 0 0 0.0133,-0.072 57.58252,57.072835 16.929259 0 0 0.0125,-0.0728 57.58252,57.072835 16.929259 0 0 0.0125,-0.072 57.58252,57.072835 16.929259 0 0 0.0125,-0.072 57.58252,57.072835 16.929259 0 0 0.0117,-0.0728 57.58252,57.072835 16.929259 0 0 0.0125,-0.072 57.58252,57.072835 16.929259 0 0 0.0118,-0.072 57.58252,57.072835 16.929259 0 0 0.0117,-0.072 57.58252,57.072835 16.929259 0 0 0.0117,-0.072 57.58252,57.072835 16.929259 0 0 0.35107,-2.46585 57.58252,57.072835 16.929259 0 0 0.24187,-2.47923 57.58252,57.072835 16.929259 0 0 0.13307,-2.48777 57.58252,57.072835 16.929259 0 0 0.0243,-2.49168 57.58252,57.072835 16.929259 0 0 -0.0861,-2.49081 57.58252,57.072835 16.929259 0 0 -0.19499,-2.48526 57.58252,57.072835 16.929259 0 0 -0.30457,-2.47493 57.58252,57.072835 16.929259 0 0 -0.41259,-2.46021 57.58252,57.072835 16.929259 0 0 -0.52061,-2.44033 57.58252,57.072835 16.929259 0 0 -0.62699,-2.41606 57.58252,57.072835 16.929259 0 0 -0.73212,-2.38687 57.58252,57.072835 16.929259 0 0 -0.83653,-2.35376 57.58252,57.072835 16.929259 0 0 -0.89195,-2.199 57.58252,57.072835 16.929259 0 0 -0.98252,-2.16034 57.58252,57.072835 16.929259 0 0 -1.07152,-2.11932 z" />
    <path
       id="path25236"
       style="display:inline;fill:url(#linearGradient17204);fill-opacity:1;stroke:none;stroke-width:1.43474;stroke-miterlimit:2;stroke-dasharray:none;stop-color:#000000"
       d="m 61.092645,122.21176 a 92.483044,91.534324 0 0 1 -1.444474,0.56291 92.483044,91.534324 0 0 1 -3.11345,1.08647 92.483044,91.534324 0 0 1 -3.150667,0.97692 92.483044,91.534324 0 0 1 -3.183825,0.86445 92.483044,91.534324 0 0 1 -2.352981,0.55008 57.58252,57.072835 0 0 0 -3.632435,1.77551 57.58252,57.072835 0 0 0 -6.262895,4.14727 57.58252,57.072835 0 0 0 -5.662623,4.92248 57.58252,57.072835 0 0 0 -4.96648,5.61316 57.58252,57.072835 0 0 0 -4.184577,6.20715 57.58252,57.072835 0 0 0 -3.331469,6.69529 57.58252,57.072835 0 0 0 -2.420954,7.06952 57.58252,57.072835 0 0 0 -0.419864,2.0928 92.483044,91.534324 0 0 1 6.433198,-2.44405 92.483044,91.534324 0 0 1 9.350872,-2.47987 92.483044,91.534324 0 0 1 9.560793,-1.49882 92.483044,91.534324 0 0 1 9.667204,-0.5014 92.483044,91.534324 0 0 1 5.750394,0.29803 92.483036,91.534316 0 0 1 3.916789,0.20337 92.483036,91.534316 0 0 1 1.055759,0.16548 92.483051,91.534332 0 0 1 8.505449,1.33376 92.483051,91.534332 0 0 1 9.350871,2.47945 92.483051,91.534332 0 0 1 1.724398,0.65528 92.483051,91.534332 0 0 1 -0.0064,-0.0404 92.483051,91.534332 0 0 0 0.0068,0.0402 92.483051,91.534332 0 0 1 0.0064,0 92.483051,91.534332 0 0 0 0,0.002 92.483051,91.534332 0 0 1 7.305713,2.77499 92.483051,91.534332 0 0 1 6.37212,3.21407 57.58252,57.072835 0 0 0 -0.107591,-1.62888 57.58252,57.072835 0 0 0 -1.469551,-7.32199 57.58252,57.072835 0 0 0 -2.420956,-7.06933 57.58252,57.072835 0 0 0 -0.04814,-0.0967 57.58252,57.072835 0 0 0 -1.395925,-2.80524 57.58252,57.072835 0 0 0 -0.0081,-0.0166 57.58252,57.072835 0 0 1 -0.695748,-0.32723 57.58252,57.072835 0 0 1 -0.95221,-0.46515 57.58252,57.072835 0 0 1 -0.685619,-0.34794 57.58252,57.072835 0 0 1 -0.398432,-0.233 57.58252,57.072835 0 0 1 -2.45856,-1.51517 57.58252,57.072835 0 0 1 -0.27831,-0.18453 57.58252,57.072835 0 0 0 3.135302,1.9327 57.58252,57.072835 0 0 0 2.333577,1.14032 57.58252,57.072835 0 0 0 -0.31391,-0.63105 57.58252,57.072835 0 0 0 -1.565009,-3.1451 57.58252,57.072835 0 0 0 -4.184582,-6.20735 57.58252,57.072835 0 0 0 -2.409602,-2.72363 92.483044,91.534324 0 0 0 -0.398842,2.49147 92.483044,91.534324 0 0 0 -0.217233,4.10565 92.483051,91.534332 0 0 0 -0.01988,0.37569 v 0 a 92.483051,91.534332 0 0 0 0,0.0103 92.483051,91.534332 0 0 0 -0.03438,0.5101 92.483036,91.534316 0 0 1 0.01014,-0.18723 92.483051,91.53434 0 0 1 0.02388,-0.3237 57.58252,57.072835 0 0 1 -0.0064,-0.006 92.483051,91.53434 0 0 0 0,0.002 57.58252,57.072835 0 0 1 -5.141608,-4.46932 57.58252,57.072835 0 0 1 -0.02265,-0.0259 57.58252,57.072835 0 0 1 0.0048,-0.006 57.58252,57.072835 0 0 0 0.002,0 57.58252,57.072835 0 0 0 0.01533,0.0166 57.58252,57.072835 0 0 0 5.143245,4.47057 92.483036,91.534316 0 0 1 0.01988,-0.37568 92.483044,91.534324 0 0 1 0.217233,-4.10048 92.483044,91.534324 0 0 1 0.39965,-2.49706 57.58252,57.072835 0 0 0 -0.377408,-0.42705 57.58252,57.072835 0 0 0 -2.1734,-2.45585 57.58252,57.072835 0 0 0 -5.662623,-4.92268 57.58252,57.072835 0 0 0 -6.262895,-4.14707 57.58252,57.072835 0 0 0 -2.241745,-1.09579 57.58252,57.072835 0 0 0 -0.0898,-0.0437 57.58252,57.072835 0 0 1 -0.002,-0.004 57.58252,57.072835 0 0 0 -0.0073,0 57.58252,57.072835 0 0 0 -4.127147,-2.0172 z m 20.313289,22.10473 v -0.002 z m 0.514118,0.43492 a 57.58252,57.072835 0 0 0 3.000992,2.13132 57.58252,57.072835 0 0 1 -0.267374,-0.17687 57.58252,57.072835 0 0 1 -2.377646,-1.68874 57.58252,57.072835 0 0 1 -0.355972,-0.26571 z m -0.762084,4.12263 a 92.483051,91.534332 0 0 0 -0.0203,0.51735 92.483051,91.534332 0 0 0 0.03073,0.71928 92.483036,91.534316 0 0 1 -0.01014,-0.19385 92.483051,91.53434 0 0 1 -0.02104,-0.5275 92.483051,91.53434 0 0 1 0.01014,-0.31749 92.483036,91.534316 0 0 1 0.01056,-0.19779 z m 0.12741,3.44022 a 92.483051,91.534332 0 0 0 0.04531,0.71969 92.483051,91.534332 0 0 0 0.09626,2.63686 92.483051,91.534332 0 0 1 -0.02344,-0.44776 92.483051,91.534332 0 0 1 -0.03115,-0.84851 92.483051,91.534332 0 0 1 -0.04167,-1.34059 57.58252,57.072835 0 0 0 -0.0068,0 92.483051,91.534332 0 0 0 0.0025,0.0769 92.483051,91.534332 0 0 1 -0.0029,-0.0764 v 0 a 57.58252,57.072835 0 0 0 -0.890697,0.0582 57.58252,57.072835 0 0 0 -3.717782,0.60847 57.58252,57.072835 0 0 1 3.717782,-0.60889 57.58252,57.072835 0 0 1 0.890697,-0.0578 92.483036,91.534316 0 0 1 0,-0.002 57.58252,57.072835 0 0 1 0.0068,0 92.483051,91.53434 0 0 1 -0.03438,-0.51777 92.483036,91.534316 0 0 1 -0.01056,-0.19985 z m 0.346673,6.57124 a 92.483051,91.534332 0 0 0 0.0056,0.0744 92.483051,91.534332 0 0 0 0.0052,0.0348 92.483051,91.534332 0 0 1 -0.0056,-0.0348 92.483051,91.534332 0 0 1 -0.0052,-0.0744 z m 0.01905,0.11598 a 92.483051,91.534332 0 0 0 0.6302,3.94037 92.483051,91.534332 0 0 1 -0.101523,-0.59273 92.483051,91.534332 0 0 1 -0.440099,-2.74973 92.483051,91.534332 0 0 1 -0.08858,-0.59791 z" />
    <path
       id="rect6489-8-4"
       style="display:inline;fill:url(#radialGradient24791);fill-opacity:1;stroke:none;stroke-width:0.79072;stroke-miterlimit:2;stroke-dasharray:none;stop-color:#000000"
       d="m 109.80744,74.576776 a 100.15093,99.123563 0 0 1 -1.34216,2.606665 100.15093,99.123563 0 0 1 -1.69477,3.02599 100.15093,99.123563 0 0 1 -1.80036,2.96603 100.15093,99.123563 0 0 1 -1.90415,2.901452 100.15093,99.123563 0 0 1 -2.00492,2.834292 100.15093,99.123563 0 0 1 -2.103885,2.762983 100.15093,99.123563 0 0 1 -2.199834,2.688855 100.15093,99.123563 0 0 1 -2.293585,2.61144 100.15093,99.123563 0 0 1 -2.383806,2.530112 100.15093,99.123563 0 0 1 -2.471867,2.446595 100.15093,99.123563 0 0 1 -2.556835,2.35962 100.15093,99.123563 0 0 1 -2.638297,2.27 100.15093,99.123563 0 0 1 -2.716729,2.1774 100.15093,99.123563 0 0 1 -2.791631,2.08199 100.15093,99.123563 0 0 1 -2.863465,1.98484 100.15093,99.123563 0 0 1 -2.931793,1.88434 100.15093,99.123563 0 0 1 -2.996643,1.7821 100.15093,99.123563 0 0 1 -3.057511,1.67722 100.15093,99.123563 0 0 1 -3.114457,1.57076 100.15093,99.123563 0 0 1 -3.168334,1.46235 100.15093,99.123563 0 0 1 -1.328139,0.55795 100.15094,99.123563 0 0 1 -1.889259,0.79372 100.15094,99.123563 0 0 1 -0.942661,0.35835 62.356759,61.804816 0 0 1 4.461867,2.18084 62.356759,61.804816 0 0 1 -1.56861,-3.15326 62.356759,61.804816 0 0 0 1.56861,3.15326 62.356759,61.804816 0 0 1 2.564287,1.25328 62.356759,61.804816 0 0 1 6.781729,4.49163 62.356759,61.804816 0 0 1 6.132548,5.33066 62.356759,61.804816 0 0 1 2.73294,3.08838 62.356759,61.804816 0 0 1 2.645319,2.9899 62.356759,61.804816 0 0 1 2.212108,3.28109 62.356759,61.804816 0 0 1 2.319416,3.44046 62.356759,61.804816 0 0 1 1.826615,3.67114 100.15093,99.123555 0 0 1 0.829646,-0.53306 100.15093,99.123555 0 0 1 9.340325,-4.71025 100.15093,99.123555 0 0 1 7.139181,-2.71218 24.969076,24.7635 0 0 1 -0.58218,-1.08036 24.969076,24.7635 0 0 1 -1.42054,-4.64544 24.969076,24.7635 0 0 1 -0.4801,-4.83111 24.969076,24.7635 0 0 1 0.4801,-4.83119 24.969076,24.7635 0 0 1 1.42054,-4.64536 24.969076,24.7635 0 0 1 0.50902,-0.94424 62.356759,61.804816 0 0 1 1.55679,-1.03121 62.356759,61.804816 0 0 1 7.31526,-3.57564 62.356759,61.804816 0 0 1 7.72395,-2.59853 62.356759,61.804816 0 0 1 7.99991,-1.57749 62.356759,61.804816 0 0 1 8.13927,-0.52868 62.356759,61.804816 0 0 1 5.16268,0.33565 24.969076,24.7635 0 0 1 2.31767,1.88606 24.969076,24.7635 0 0 1 3.10529,3.75286 24.969076,24.7635 0 0 1 2.30718,4.28122 24.969076,24.7635 0 0 1 1.42094,4.64536 24.969076,24.7635 0 0 1 0.47968,4.83119 24.969076,24.7635 0 0 1 -0.47968,4.83111 24.969076,24.7635 0 0 1 -0.25314,0.828 100.15093,99.123555 0 0 1 7.69593,1.20639 100.15093,99.123555 0 0 1 1.68027,0.44547 62.356759,61.804816 0 0 0 4.88942,-5.5255 62.356759,61.804816 0 0 0 4.53155,-6.72202 62.356759,61.804816 0 0 0 2.02194,-4.06408 62.356759,61.804816 0 0 0 1.20733,-2.42648 100.15093,99.123555 0 0 0 -0.65055,-1.26376 100.15093,99.123555 0 0 0 -5.70944,-8.70146 100.15093,99.123555 0 0 0 -6.59733,-8.06321 100.15093,99.123555 0 0 0 -7.41249,-7.336483 100.15093,99.123555 0 0 0 -8.14664,-6.529618 100.15093,99.123555 0 0 0 -8.79195,-5.650659 100.15093,99.123555 0 0 0 -9.34027,-4.710721 100.15093,99.123555 0 0 0 -9.7867,-3.718027 100.15093,99.123555 0 0 0 -3.03035,-0.803737 100.15093,99.123563 0 0 0 -5.07381,-1.345249 z" />
    <path
       style="display:inline;fill:#f01d1d;fill-opacity:1;stroke:none;stroke-width:0.207105px;stroke-linecap:butt;stroke-linejoin:miter;stroke-opacity:1"
       d="m 111.55356,79.289063 c 0,0 -24.512319,31.598407 -36.260716,37.615877 -11.748421,6.01722 -2.521948,6.70229 4.100255,2.69668 6.622227,-4.00585 46.478351,-29.531932 44.190421,-34.646792 -2.28791,-5.114859 -12.02996,-5.665765 -12.02996,-5.665765 z"
       id="path4428"
       sodipodi:nodetypes="csssc" />
  </g>
</svg>
